<?xml version="1.0" encoding="UTF-8" standalone="no"?>
<svg
   xmlns:dc="http://purl.org/dc/elements/1.1/"
   xmlns:cc="http://creativecommons.org/ns#"
   xmlns:rdf="http://www.w3.org/1999/02/22-rdf-syntax-ns#"
   xmlns:svg="http://www.w3.org/2000/svg"
   xmlns="http://www.w3.org/2000/svg"
   viewBox="0 0 666.66669 666.66669"
   height="666.66669"
   width="666.66669"
   xml:space="preserve"
   id="svg2"
   version="1.1"><metadata
     id="metadata8"><rdf:RDF><cc:Work
         rdf:about=""><dc:format>image/svg+xml</dc:format><dc:type
           rdf:resource="http://purl.org/dc/dcmitype/StillImage" /></cc:Work></rdf:RDF></metadata><defs
     id="defs6" /><g
     transform="matrix(1.3333333,0,0,-1.3333333,0,666.66667)"
     id="g10"><g
       transform="scale(0.1)"
       id="g12"><path
         id="path14"
         style="fill:#ffffff;fill-opacity:1;fill-rule:nonzero;stroke:none"
         d="M 0,0 H 5000 V 5000 H 0 Z" /><path
         id="path16"
         style="fill:#f3f1fa;fill-opacity:1;fill-rule:nonzero;stroke:none"
         d="m 4370.22,2724.42 c 0,-971.41 -787.49,-1758.9 -1758.9,-1758.9 -971.42,0 -1758.914,787.49 -1758.914,1758.9 0,371.73 115.321,716.53 312.134,1000.57 317.5,458.23 847.09,758.34 1446.78,758.34 971.41,0 1758.9,-787.49 1758.9,-1758.91" /><path
         id="path18"
         style="fill:#f3f1fa;fill-opacity:1;fill-rule:nonzero;stroke:none"
         d="m 4152.1,2805.15 c -0.68,235.7 -44.14,471.28 -129.72,690.76 -85.31,219.51 -212.39,422.75 -373.34,594.52 -160.82,171.83 -356.19,311.2 -571.33,405.8 -215.05,94.82 -449.97,143.19 -684.52,142.07 -234.56,-1 -468.55,-51.48 -681.94,-147.88 -213.67,-95.99 -406.03,-237.01 -565.06,-408.25 C 986.918,3910.98 861.488,3708.73 777.613,3490.64 693.441,3272.56 651.285,3038.8 651.297,2805.15 c -0.141,-233.67 42.117,-467.43 126.266,-685.52 83.882,-218.11 209.316,-420.34 368.597,-591.54 158.94,-171.34 351.39,-312.29 565.05,-408.31 213.4,-96.4 447.41,-146.882 681.98,-147.87 234.56,-1.121 469.49,47.26 684.55,142.09 215.13,94.62 410.53,233.98 571.31,405.84 160.96,171.79 288.03,375.03 373.34,594.53 85.58,219.5 129.04,455.07 129.71,690.78 m 0,0 c 0.15,-235.7 -42.49,-471.59 -127.41,-691.66 -84.65,-220.09 -211.24,-424.2 -372.02,-597.01 -160.51,-172.89 -354.78,-315.25 -570.6,-412.2 -215.55,-97.37 -451.97,-148.35 -688.88,-149.331 -236.9,-1.129 -474.23,47.761 -691.44,143.561 -217.29,95.54 -414.5,236.32 -576.86,409.72 -162.452,173.4 -290.679,378.51 -376.761,600 -86.348,221.48 -130.184,459.18 -130.859,696.92 0.55,237.74 44.484,475.45 130.804,696.92 86.086,221.51 214.324,426.62 376.786,600.02 162.26,173.51 359.57,314.21 576.85,409.79 217.22,95.79 454.57,144.68 691.48,143.55 236.93,-0.99 473.35,-51.99 688.9,-149.36 215.82,-96.97 410.12,-239.32 570.59,-412.24 160.79,-172.82 287.37,-376.93 372.02,-597.02 84.92,-220.08 127.55,-455.96 127.4,-691.66" /><path
         id="path20"
         style="fill:#f3f1fa;fill-opacity:1;fill-rule:nonzero;stroke:none"
         d="m 4450.05,2733.74 c -1.18,228.49 -40.07,457.19 -119.59,671.3 -79.62,213.88 -197.63,413.33 -348.55,583.57 -150.87,170 -333.49,312.03 -537.78,410.44 -51.02,24.59 -103.35,46.45 -156.64,65.5 -53.21,19.27 -107.46,35.68 -162.44,49.09 -109.94,26.84 -222.79,41.59 -335.93,44.07 -113.13,2.52 -226.52,-7.16 -337.5,-29.1 -111.03,-21.8 -219.42,-56.24 -323.35,-100.93 -207.92,-89.65 -396.04,-224 -551.81,-388.68 -155.89,-164.74 -280.02,-359.27 -366.4,-569.32 -86.3,-210.16 -135.32,-435.71 -144.73,-663.23 -9.73,-227.35 18.76,-457.38 91.87,-673.53 72.91,-215.88 189.02,-417.98 343.63,-585.85 77.02,-84.04 162.87,-159.94 255.63,-226.09 92.93,-65.93 192.89,-121.76 297.3,-166.94 208.96,-90.47 435.98,-136.71 662.96,-139.54 113.51,-2.03 227.22,6.52 338.97,26.1 111.8,19.45 221.38,50.49 327.31,90.9 211.85,81.2 406.3,207.02 568.32,366.43 162.04,159.52 289.75,353.93 374.01,566 42.46,105.93 73.37,216.46 94.14,328.79 20.59,112.39 30.22,226.73 30.58,341.02 m 3.35,0 c 0.12,-228.89 -38.48,-458.39 -119.75,-673.05 -80.91,-214.63 -206.09,-413.15 -367.19,-577.84 -160.48,-165.44 -358.31,-293.94 -572.85,-378.61 -214.85,-84.83 -447.18,-122.361 -677.44,-117.33 -230.37,6.031 -459.81,56.14 -669.66,150.66 -104.93,47.12 -204.83,105.17 -297.77,172.65 -93.13,67.21 -179.19,144.18 -256.26,229.25 -153.8,170.47 -272.58,372.2 -346.69,589.56 -74.6,217.23 -107.05,448.42 -99.74,678.11 6.54,229.75 52.74,458.94 138.87,672.75 42.87,106.92 95.38,210.07 156.94,307.58 61.71,97.42 132.52,189.14 211.48,273.33 157.73,168.4 348.87,306.44 560.92,399.11 211.87,92.94 444.48,138.06 675.65,132.27 231.13,-5.52 461.4,-61.3 668.11,-164.76 207.06,-102.67 391.44,-249.03 540.27,-424.58 149.25,-175.32 264.56,-378.4 340.76,-594.69 76.59,-216.21 115.18,-445.41 114.35,-674.41" /><path
         id="path22"
         style="fill:#b5a2d8;fill-opacity:1;fill-rule:nonzero;stroke:none"
         d="m 1542.33,4130.8 c -2.77,7 0.64,14.92 7.64,17.7 6.99,2.77 14.92,-0.64 17.7,-7.64 2.77,-6.99 -0.64,-14.91 -7.64,-17.69 -6.99,-2.78 -14.92,0.64 -17.7,7.63" /><path
         id="path24"
         style="fill:#b5a2d8;fill-opacity:1;fill-rule:nonzero;stroke:none"
         d="m 3824.82,3401.13 c -2.77,6.99 0.65,14.92 7.64,17.7 6.99,2.78 14.91,-0.64 17.7,-7.63 2.78,-7 -0.64,-14.92 -7.64,-17.7 -6.99,-2.78 -14.91,0.64 -17.7,7.63" /><path
         id="path26"
         style="fill:#b5a2d8;fill-opacity:1;fill-rule:nonzero;stroke:none"
         d="m 1264.11,3401.13 c -2.78,6.99 0.64,14.92 7.63,17.7 7,2.78 14.92,-0.64 17.7,-7.63 2.78,-7 -0.64,-14.92 -7.64,-17.7 -6.99,-2.78 -14.92,0.64 -17.69,7.63" /><path
         id="path28"
         style="fill:#b5a2d8;fill-opacity:1;fill-rule:nonzero;stroke:none"
         d="m 3448.7,4146.09 c -2.77,6.99 0.65,14.91 7.64,17.69 6.99,2.78 14.91,-0.64 17.69,-7.63 2.79,-6.99 -0.63,-14.92 -7.63,-17.7 -7,-2.77 -14.92,0.64 -17.7,7.64" /><path
         id="path30"
         style="fill:#b5a2d8;fill-opacity:1;fill-rule:nonzero;stroke:none"
         d="m 1338.41,2287 c -2.78,6.99 0.64,14.91 7.63,17.7 7,2.77 14.92,-0.65 17.7,-7.64 2.78,-6.99 -0.64,-14.92 -7.64,-17.69 -6.99,-2.79 -14.91,0.63 -17.69,7.63" /><path
         id="path32"
         style="fill:#b5a2d8;fill-opacity:1;fill-rule:nonzero;stroke:none"
         d="m 4084,2512.07 c -2.78,6.99 0.64,14.91 7.63,17.69 7,2.78 14.92,-0.64 17.71,-7.64 2.77,-6.99 -0.65,-14.91 -7.64,-17.69 -6.99,-2.78 -14.92,0.64 -17.7,7.64" /><path
         id="path34"
         style="fill:#b5a2d8;fill-opacity:1;fill-rule:nonzero;stroke:none"
         d="m 2297.66,4212.93 c -2.77,0 -5,2.23 -5,5 v 54.62 c 0,2.76 2.23,5 5,5 2.76,0 5,-2.24 5,-5 v -54.62 c 0,-2.77 -2.24,-5 -5,-5" /><path
         id="path36"
         style="fill:#b5a2d8;fill-opacity:1;fill-rule:nonzero;stroke:none"
         d="m 2324.97,4240.24 h -54.62 c -2.77,0 -5,2.24 -5,5 0,2.76 2.23,5 5,5 h 54.62 c 2.76,0 5,-2.24 5,-5 0,-2.76 -2.24,-5 -5,-5" /><path
         id="path38"
         style="fill:#b5a2d8;fill-opacity:1;fill-rule:nonzero;stroke:none"
         d="m 4152.1,2940.71 c -2.76,0 -5,2.24 -5,5 v 54.62 c 0,2.77 2.24,5 5,5 2.76,0 5,-2.23 5,-5 v -54.62 c 0,-2.76 -2.24,-5 -5,-5" /><path
         id="path40"
         style="fill:#b5a2d8;fill-opacity:1;fill-rule:nonzero;stroke:none"
         d="m 4179.41,2968.02 h -54.62 c -2.77,0 -5,2.24 -5,5 0,2.77 2.23,5 5,5 h 54.62 c 2.77,0 5,-2.23 5,-5 0,-2.76 -2.23,-5 -5,-5" /><path
         id="path42"
         style="fill:#b5a2d8;fill-opacity:1;fill-rule:nonzero;stroke:none"
         d="m 3865.8,1952.34 c -2.76,0 -5,2.24 -5,5 v 54.63 c 0,2.77 2.24,5 5,5 2.76,0 5,-2.23 5,-5 v -54.63 c 0,-2.76 -2.24,-5 -5,-5" /><path
         id="path44"
         style="fill:#b5a2d8;fill-opacity:1;fill-rule:nonzero;stroke:none"
         d="m 3893.12,1979.66 h -54.62 c -2.77,0 -5,2.23 -5,5 0,2.76 2.23,5 5,5 h 54.62 c 2.76,0 5,-2.24 5,-5 0,-2.77 -2.24,-5 -5,-5" /><path
         id="path46"
         style="fill:#b5a2d8;fill-opacity:1;fill-rule:nonzero;stroke:none"
         d="m 926.602,2848.28 c -2.762,0 -5,2.23 -5,5 v 54.62 c 0,2.76 2.238,5 5,5 2.761,0 5,-2.24 5,-5 v -54.62 c 0,-2.77 -2.239,-5 -5,-5" /><path
         id="path48"
         style="fill:#b5a2d8;fill-opacity:1;fill-rule:nonzero;stroke:none"
         d="m 953.91,2875.59 h -54.617 c -2.766,0 -5,2.23 -5,5 0,2.76 2.234,5 5,5 h 54.617 c 2.766,0 5,-2.24 5,-5 0,-2.77 -2.234,-5 -5,-5" /><path
         id="path50"
         style="fill:#e4ddf2;fill-opacity:1;fill-rule:nonzero;stroke:none"
         d="m 2530.66,875.582 c 3.94,12.227 8.82,28.258 14.21,46.609 h 83.9 c 6.71,-22.55 11.83,-39.179 14.26,-46.351 -36.94,-0.16 -74.44,-0.25 -112.37,-0.258 m -109.02,0.188 c -562.23,2.16 -1002.54,21.89 -1002.54,45.91 0,6.242 29.75,12.199 83.66,17.629 12.2,-10.661 28.17,-17.118 45.64,-17.118 h 874.78 c -0.97,-10.722 -1.83,-22.793 -1.82,-31.64 0,-4.34 0.1,-9.289 0.28,-14.781 m 329.26,0.781 c -2.88,4.121 -5.15,8.398 -6.62,13.121 -2.36,7.578 -4.25,18.777 -5.77,32.519 h 760.95 c 8.81,0 17.24,1.641 24.99,4.629 32.79,-0.058 65.47,-0.14 98.13,-0.23 4.09,-1.621 6.19,-3.25 6.19,-4.91 0,-22.211 -376.57,-40.758 -877.87,-45.129" /><path
         id="path52"
         style="fill:#d7d0ec;fill-opacity:1;fill-rule:nonzero;stroke:none"
         d="m 3610.05,989.109 c 0.56,-0.769 2.53,64.211 99.91,122.341 99.21,61.99 305.52,41.5 335.03,105.45 30.95,68.49 -99.59,59.32 -153.07,113.88 -53.93,55.77 -71.6,81.1 7.17,92.51 78.36,10.15 125.58,14.12 128.81,78.5 3.31,65.14 129.37,26.77 195.95,70.89 68.58,44 35.92,109.79 -89.25,112.96 -123.15,0.08 -126.53,20.56 -90.06,37.59 35.85,16.9 145.1,43.53 101.36,79.35 -44.97,36.27 -114.86,10.07 -76.3,49.84 38.11,40.15 125.63,65.89 86.32,113.96 -39.17,48.63 -147.16,50.11 -214.86,-66.91 -66.35,-116.74 -88.15,-149.11 -148.06,-159.02 -27.17,-4.89 -52.81,6.64 -79.77,18.18 -31,13.26 -63.73,26.53 -102.51,14.8 -71.96,-22.79 -62.17,-91.09 -22.47,-138.22 40.76,-47.31 107.94,-140.42 62.13,-177.92 -44.16,-37.93 -92.02,24.16 -152.92,38.18 -67.6,15.56 -148.31,-38.62 -89.21,-135.53 61.68,-95.7 160.39,-173.84 151.14,-386.87 16.79,5.68 33.69,11.032 50.66,16.039" /><path
         id="path54"
         style="fill:#c4b9e2;fill-opacity:1;fill-rule:nonzero;stroke:none"
         d="m 3799.07,1234.31 c -0.32,2.42 -0.8,4.82 -1.42,7.18 47.03,4.61 91.93,5.75 124.9,5.75 31.88,0 52.59,-1.07 53.22,-1.1 2.06,-0.1 3.56,-1.85 3.45,-3.86 -0.11,-1.94 -1.73,-3.46 -3.66,-3.46 -0.07,0 -0.13,0.01 -0.2,0.01 -0.63,0.03 -21.33,1.1 -53.14,1.1 -32.58,0 -76.83,-1.12 -123.15,-5.62 m -127.22,31.89 c 38.55,101.72 78.35,190.71 117.42,267.95 -6.78,9.16 -46.98,62.59 -106.33,125.08 -2.78,7.58 -5.65,14 -8.07,18.94 62.3,-63.85 106.39,-121.16 118.1,-136.76 6.91,13.54 13.8,26.73 20.64,39.57 -0.02,1.26 0.6,2.41 1.66,3.08 32.48,60.59 64.11,113.1 93.72,158.16 0.1,1.16 0.54,2.26 1.65,2.89 l 0.39,0.21 c 104.06,157.58 182.72,222.95 184.27,224.21 0.69,0.55 1.5,0.82 2.31,0.82 1.07,0 2.12,-0.47 2.84,-1.36 1.28,-1.57 1.02,-3.88 -0.55,-5.15 -1.49,-1.21 -75.79,-62.97 -175.35,-211.3 73.43,37.2 150.29,41.46 181.55,41.46 9.04,0 14.27,-0.36 14.5,-0.38 2.21,-0.19 3.53,-1.91 3.38,-3.92 -0.14,-1.93 -1.75,-3.39 -3.65,-3.39 -0.09,0 -0.18,0 -0.27,0.01 -0.23,0.02 -5.31,0.36 -14.08,0.36 -32.26,0 -114.51,-4.63 -190,-47.03 -28.72,-43.59 -59.37,-94.26 -90.86,-152.6 108.85,30.49 221.68,36.29 291.65,36.29 42.24,0 68.86,-2.12 69.57,-2.18 2.27,-0.16 3.5,-1.94 3.34,-3.95 -0.17,-1.9 -1.77,-3.36 -3.65,-3.36 -0.1,0 -0.21,0.01 -0.31,0.02 -0.7,0.06 -27.21,2.17 -69.25,2.17 -70.94,0 -186.12,-6 -296.16,-37.94 -45.79,-85.74 -93.24,-187.69 -139.02,-307.66 -3.15,-1.6 -6.3,-3.05 -9.44,-4.24" /><path
         id="path56"
         style="fill:#d7d0ec;fill-opacity:1;fill-rule:nonzero;stroke:none"
         d="m 1606.66,1851.09 c 15.72,519.17 -234.13,1033.28 -652.051,1341.7 l 8.274,11.21 C 1384.43,2892.9 1636.45,2374.34 1620.58,1850.66 l -13.92,0.43" /><path
         id="path58"
         style="fill:#d7d0ec;fill-opacity:1;fill-rule:nonzero;stroke:none"
         d="m 1044.39,3130.17 c -32.51,64.93 -89.152,117.41 -156.363,144.89 -16.472,6.73 -35.836,11.85 -51.488,3.38 -4.305,-2.33 -8.226,-5.82 -9.816,-10.44 -2.559,-7.46 1.484,-15.49 6.019,-21.93 24.051,-34.14 63.867,-53.35 103.176,-67.45 39.309,-14.09 66.872,-29.87 108.472,-48.45" /><path
         id="path60"
         style="fill:#d7d0ec;fill-opacity:1;fill-rule:nonzero;stroke:none"
         d="m 1150.47,3027.41 c -55.6,46.71 -128.41,72.42 -201.013,70.99 -17.793,-0.35 -37.594,-3.33 -48.602,-17.32 -3.027,-3.84 -5.246,-8.6 -4.875,-13.48 0.614,-7.85 7.504,-13.62 14.231,-17.73 35.613,-21.8 79.785,-23.65 121.459,-21.01 41.67,2.65 73.23,-0.9 118.8,-1.45" /><path
         id="path62"
         style="fill:#d7d0ec;fill-opacity:1;fill-rule:nonzero;stroke:none"
         d="m 1276.77,2883.16 c -49.46,53.15 -118.59,87.58 -190.82,95.03 -17.7,1.83 -37.72,1.29 -50.35,-11.24 -3.48,-3.44 -6.26,-7.9 -6.49,-12.78 -0.36,-7.88 5.78,-14.44 11.95,-19.35 32.69,-25.99 76.3,-33.22 117.98,-35.69 41.69,-2.46 72.58,-9.85 117.73,-15.97" /><path
         id="path64"
         style="fill:#d7d0ec;fill-opacity:1;fill-rule:nonzero;stroke:none"
         d="m 1380.5,2727.08 c -49.47,53.15 -118.6,87.58 -190.82,95.03 -17.71,1.83 -37.72,1.29 -50.36,-11.24 -3.48,-3.45 -6.26,-7.9 -6.48,-12.78 -0.36,-7.88 5.78,-14.44 11.95,-19.35 32.68,-25.99 76.29,-33.22 117.98,-35.69 41.68,-2.47 72.57,-9.85 117.73,-15.97" /><path
         id="path66"
         style="fill:#d7d0ec;fill-opacity:1;fill-rule:nonzero;stroke:none"
         d="m 1490.15,2503.99 c -43.69,57.99 -108.89,99.39 -179.95,114.29 -17.42,3.65 -37.39,5.19 -51.25,-5.97 -3.82,-3.06 -7.05,-7.2 -7.77,-12.04 -1.18,-7.79 4.25,-14.96 9.87,-20.48 29.82,-29.23 72.45,-40.95 113.65,-47.72 41.21,-6.77 71.17,-17.31 115.45,-28.08" /><path
         id="path68"
         style="fill:#d7d0ec;fill-opacity:1;fill-rule:nonzero;stroke:none"
         d="m 1553.85,2334.41 c -37.91,55.86 -98.61,100.41 -167.53,122.96 -16.89,5.54 -36.5,9.6 -51.23,1.91 -4.05,-2.11 -7.63,-5.23 -8.79,-9.29 -1.87,-6.54 2.85,-13.45 7.9,-18.96 26.82,-29.23 67.91,-45.16 108.04,-56.63 40.14,-11.48 68.8,-24.65 111.61,-39.99" /><path
         id="path70"
         style="fill:#d7d0ec;fill-opacity:1;fill-rule:nonzero;stroke:none"
         d="m 1196.12,2977.68 c 28.62,68.94 31.88,149.77 9.02,223.13 -5.6,17.98 -14.33,37.3 -31.07,44.75 -4.61,2.05 -9.86,3.02 -14.45,1.34 -7.4,-2.71 -10.92,-11.26 -12.9,-19.18 -10.49,-42 0.79,-87.36 15.67,-128.98 14.89,-41.63 20.8,-74.63 33.73,-121.06" /><path
         id="path72"
         style="fill:#d7d0ec;fill-opacity:1;fill-rule:nonzero;stroke:none"
         d="m 1290.4,2862.94 c 44.23,60.12 66.7,137.84 62.01,214.53 -1.15,18.8 -5.01,39.64 -19.49,50.87 -3.98,3.09 -8.85,5.3 -13.71,4.76 -7.83,-0.87 -13.29,-8.33 -17.11,-15.55 -20.21,-38.28 -20.08,-85.02 -15.57,-129 4.52,-43.97 2.38,-77.43 3.87,-125.61" /><path
         id="path74"
         style="fill:#d7d0ec;fill-opacity:1;fill-rule:nonzero;stroke:none"
         d="m 1393.59,2700.35 c 55.37,50.06 92.94,121.71 103.69,197.79 2.64,18.65 3.01,39.85 -8.93,53.74 -3.28,3.83 -7.6,6.96 -12.48,7.41 -7.84,0.71 -14.68,-5.5 -19.87,-11.81 -27.46,-33.47 -36.68,-79.29 -41.06,-123.28 -4.37,-43.99 -13.16,-76.35 -21.35,-123.85" /><path
         id="path76"
         style="fill:#d7d0ec;fill-opacity:1;fill-rule:nonzero;stroke:none"
         d="m 1505.26,2480.57 c 42.89,61.08 63.63,139.28 57.24,215.85 -1.57,18.77 -5.89,39.52 -20.62,50.43 -4.05,2.99 -8.96,5.09 -13.81,4.44 -7.81,-1.04 -13.1,-8.61 -16.76,-15.92 -19.36,-38.72 -18.19,-85.45 -12.7,-129.31 5.5,-43.86 4.1,-77.36 6.65,-125.49" /><path
         id="path78"
         style="fill:#d7d0ec;fill-opacity:1;fill-rule:nonzero;stroke:none"
         d="m 1559.15,2311.37 c 65.8,35.24 119.52,95.73 148.28,166.98 7.05,17.46 12.53,37.94 4.29,54.31 -2.27,4.5 -5.7,8.59 -10.33,10.19 -7.44,2.58 -15.58,-1.8 -22.13,-6.68 -34.72,-25.86 -54.71,-68.1 -69.55,-109.74 -14.85,-41.64 -31.17,-70.93 -50.56,-115.06" /><path
         id="path80"
         style="fill:#d7d0ec;fill-opacity:1;fill-rule:nonzero;stroke:none"
         d="m 3475.34,1724.85 c -112.24,507.14 37.37,1058.82 390.46,1439.75 l -10.21,9.47 c -356.16,-384.24 -507.06,-940.7 -393.85,-1452.22 l 13.6,3" /><path
         id="path82"
         style="fill:#d7d0ec;fill-opacity:1;fill-rule:nonzero;stroke:none"
         d="m 3789.27,3086.34 c 19.83,69.85 65.7,131.98 126.61,171.5 14.93,9.69 33,18.33 49.96,12.93 4.66,-1.49 9.16,-4.19 11.59,-8.44 3.9,-6.84 1.43,-15.48 -1.83,-22.66 -17.26,-38.02 -52.8,-64.32 -88.79,-85.5 -35.99,-21.18 -60.13,-41.82 -97.54,-67.83" /><path
         id="path84"
         style="fill:#d7d0ec;fill-opacity:1;fill-rule:nonzero;stroke:none"
         d="m 3704.22,2965.6 c 45.91,56.26 112.66,95.1 184.25,107.23 17.54,2.97 37.56,3.73 50.97,-7.95 3.69,-3.21 6.76,-7.48 7.31,-12.34 0.86,-7.83 -4.84,-14.78 -10.68,-20.07 -30.92,-28.07 -73.97,-38.12 -115.41,-43.29 -41.44,-5.16 -71.78,-14.54 -116.44,-23.58" /><path
         id="path86"
         style="fill:#d7d0ec;fill-opacity:1;fill-rule:nonzero;stroke:none"
         d="m 3607.02,2800.34 c 38.68,61.44 100.19,108.15 169.76,128.94 17.05,5.09 36.81,8.3 51.57,-1.66 4.05,-2.73 7.62,-6.59 8.75,-11.35 1.82,-7.67 -2.99,-15.26 -8.14,-21.23 -27.26,-31.63 -68.75,-46.87 -109.25,-57.06 -40.5,-10.2 -69.47,-23.21 -112.69,-37.64" /><path
         id="path88"
         style="fill:#d7d0ec;fill-opacity:1;fill-rule:nonzero;stroke:none"
         d="m 3534.22,2627.65 c 38.68,61.45 100.18,108.16 169.75,128.95 17.06,5.09 36.82,8.3 51.58,-1.66 4.05,-2.74 7.61,-6.6 8.75,-11.35 1.81,-7.67 -2.99,-15.26 -8.14,-21.23 -27.26,-31.63 -68.77,-46.87 -109.26,-57.07 -40.49,-10.19 -69.47,-23.2 -112.68,-37.64" /><path
         id="path90"
         style="fill:#d7d0ec;fill-opacity:1;fill-rule:nonzero;stroke:none"
         d="m 3468.09,2388.04 c 32.11,65.11 88.43,117.95 155.47,145.83 16.44,6.83 35.77,12.07 51.47,3.69 4.32,-2.3 8.27,-5.76 9.88,-10.38 2.61,-7.44 -1.38,-15.49 -5.89,-21.96 -23.83,-34.28 -63.53,-53.75 -102.75,-68.07 -39.23,-14.34 -66.7,-30.28 -108.18,-49.11" /><path
         id="path92"
         style="fill:#d7d0ec;fill-opacity:1;fill-rule:nonzero;stroke:none"
         d="m 3437.11,2209.55 c 26.84,61.95 78.15,117.03 141.67,152.04 15.57,8.59 34.07,16.23 49.98,11.43 4.37,-1.32 8.47,-3.72 10.36,-7.49 3.06,-6.08 -0.28,-13.74 -4.23,-20.1 -20.89,-33.72 -58.29,-57.03 -95.58,-75.78 -37.3,-18.76 -63,-37.05 -102.2,-60.1" /><path
         id="path94"
         style="fill:#d7d0ec;fill-opacity:1;fill-rule:nonzero;stroke:none"
         d="m 3668.63,2908.23 c -40.96,62.4 -59.24,141.21 -50.46,217.54 2.15,18.71 7.13,39.32 22.19,49.76 4.14,2.87 9.11,4.81 13.94,4.01 7.77,-1.28 12.83,-9.02 16.25,-16.44 18.14,-39.31 15.51,-85.97 8.65,-129.64 -6.86,-43.67 -6.51,-77.2 -10.57,-125.23" /><path
         id="path96"
         style="fill:#d7d0ec;fill-opacity:1;fill-rule:nonzero;stroke:none"
         d="m 3597.41,2777.93 c -54.68,50.82 -91.24,122.99 -100.94,199.21 -2.37,18.68 -2.46,39.88 9.67,53.61 3.34,3.78 7.71,6.85 12.59,7.23 7.85,0.6 14.61,-5.7 19.7,-12.09 27,-33.84 35.58,-79.78 39.35,-123.83 3.76,-44.04 12.1,-76.52 19.63,-124.13" /><path
         id="path98"
         style="fill:#d7d0ec;fill-opacity:1;fill-rule:nonzero;stroke:none"
         d="m 3526.33,2598.96 c -63.73,38.85 -114,102.24 -138.74,174.98 -6.07,17.83 -10.39,38.59 -1.25,54.47 2.51,4.36 6.17,8.25 10.88,9.6 7.57,2.16 15.46,-2.67 21.73,-7.9 33.21,-27.76 50.82,-71.06 63.32,-113.46 12.5,-42.4 27.16,-72.55 44.06,-117.69" /><path
         id="path100"
         style="fill:#d7d0ec;fill-opacity:1;fill-rule:nonzero;stroke:none"
         d="m 3457.6,2362.2 c -53.53,52.02 -88.48,124.98 -96.48,201.39 -1.96,18.73 -1.58,39.94 10.86,53.39 3.42,3.7 7.85,6.68 12.74,6.95 7.87,0.43 14.48,-6.02 19.43,-12.52 26.24,-34.44 33.8,-80.56 36.58,-124.68 2.79,-44.11 10.4,-76.77 16.87,-124.53" /><path
         id="path102"
         style="fill:#d7d0ec;fill-opacity:1;fill-rule:nonzero;stroke:none"
         d="m 3436.2,2185.92 c -71.22,22.36 -135.27,71.78 -176.82,136.4 -10.17,15.85 -19.37,34.96 -14.33,52.57 1.39,4.85 4,9.49 8.24,11.94 6.84,3.92 15.65,1.14 23,-2.44 38.92,-18.93 66.44,-56.71 88.79,-94.86 22.34,-38.13 43.85,-63.87 71.12,-103.61" /><path
         id="path104"
         style="fill:#b5a2d8;fill-opacity:1;fill-rule:nonzero;stroke:none"
         d="m 3239.24,1353.24 c 63.36,59.25 152.85,89.48 239.15,80.75 58.46,-5.89 122.2,-37.12 135.06,-94.45 6.12,-27.3 3.97,-63.52 29.82,-74.25 25.28,-10.49 49.72,15.56 75.68,24.26 43.22,14.5 92.53,-34.91 77.95,-78.09 -6.63,-19.65 -23.25,-36.76 -21.86,-57.45 1.87,-28.16 36.69,-42.84 64.58,-38.46 27.88,4.37 52.51,20.65 79.86,27.61 27.36,6.97 62.79,-0.01 72.4,-26.56 8.6,-23.79 -6.26,-55.75 12.43,-72.81 8,-7.31 19.59,-8.82 30.38,-9.84 236.86,-22.48 497.71,-64.97 471.21,-107.071 -7.25,-11.488 -25.76,-7.84 -39.36,-7.617 -504.15,7.886 -957.42,8.019 -1466.07,7.75 l 238.77,426.228" /><path
         id="path106"
         style="fill:#d7d0ec;fill-opacity:1;fill-rule:nonzero;stroke:none"
         d="m 1539.22,932.859 c -0.56,-0.769 -2.52,64.211 -99.91,122.341 -99.21,61.98 -305.51,41.49 -335.03,105.44 -30.95,68.49 99.59,59.33 153.07,113.89 53.93,55.77 71.59,81.1 -7.17,92.5 -78.36,10.16 -125.58,14.12 -128.81,78.51 -3.3,65.13 -129.358,26.77 -195.944,70.89 -68.586,44 -35.914,109.79 89.244,112.96 123.15,0.07 126.53,20.55 90.06,37.59 -35.85,16.9 -145.101,43.53 -101.35,79.34 44.96,36.27 114.84,10.07 76.29,49.85 -38.11,40.15 -125.631,65.88 -86.315,113.95 39.165,48.63 147.155,50.12 214.845,-66.91 66.36,-116.73 88.16,-149.1 148.07,-159.02 27.17,-4.89 52.82,6.64 79.77,18.18 31,13.27 63.74,26.54 102.51,14.81 71.96,-22.79 62.17,-91.1 22.47,-138.23 -40.76,-47.31 -107.94,-140.41 -62.13,-177.92 44.16,-37.92 92.02,24.17 152.92,38.18 67.6,15.57 148.31,-38.61 89.21,-135.53 -61.68,-95.7 -152.78,-127.21 -143.52,-340.25 -8.46,2.859 -18.88,-6.18 -29.3,-15.231 -10.27,-8.91 -20.55,-17.828 -28.98,-15.34" /><path
         id="path108"
         style="fill:#c4b9e2;fill-opacity:1;fill-rule:nonzero;stroke:none"
         d="m 1479,1154.32 c -81.05,25.12 -188.59,29.36 -251.97,29.36 -31.8,0 -52.49,-1.07 -53.12,-1.1 -0.08,-0.01 -0.15,-0.01 -0.22,-0.01 -1.92,0 -3.53,1.52 -3.64,3.46 -0.11,2.01 1.39,3.75 3.45,3.85 0.64,0.04 21.34,1.11 53.23,1.11 63.26,0 170.5,-4.21 252.27,-29.04 v -7.63 m 0,30.55 c -49.15,132.78 -100.55,244.34 -150.05,336.98 -110.06,31.94 -225.24,37.93 -296.18,37.93 -42.012,0 -68.52,-2.1 -69.219,-2.16 -0.11,-0.01 -0.215,-0.02 -0.321,-0.02 -1.878,0 -3.472,1.46 -3.636,3.36 -0.164,2 1.066,3.78 3.34,3.95 0.707,0.06 27.312,2.17 69.536,2.17 69.97,0 182.82,-5.79 291.68,-36.28 -31.49,58.34 -62.14,109 -90.85,152.6 -75.48,42.39 -157.71,47.02 -189.98,47.02 -8.79,0 -13.88,-0.34 -14.11,-0.36 -0.09,-0.01 -0.18,-0.01 -0.27,-0.01 -1.91,0 -3.51,1.47 -3.66,3.4 -0.14,2 1.18,3.73 3.38,3.91 0.24,0.02 5.47,0.38 14.51,0.38 31.27,0 108.13,-4.26 181.55,-41.45 -22.74,33.87 -44.15,63.23 -63.69,88.38 3.15,-0.01 6.24,-0.06 9.28,-0.13 20.83,-27.06 43.69,-58.76 67.93,-95.47 l 0.4,-0.22 c 1.1,-0.63 1.54,-1.73 1.64,-2.89 29.61,-45.05 61.24,-97.56 93.71,-158.15 1.07,-0.68 1.68,-1.83 1.66,-3.09 6.85,-12.83 13.74,-26.02 20.65,-39.57 11.99,15.98 57.97,75.74 122.7,141.45 v -10.47 c -66.26,-68 -111.74,-128.44 -119,-138.23 39.6,-78.31 79.95,-168.65 119,-272.12 v -20.91" /><path
         id="path110"
         style="fill:#b5a2d8;fill-opacity:1;fill-rule:nonzero;stroke:none"
         d="m 1937.98,1353.24 c -63.36,59.25 -152.85,89.47 -239.15,80.75 -58.45,-5.89 -122.19,-37.12 -135.06,-94.45 -6.12,-27.3 -3.98,-63.52 -29.81,-74.25 -25.3,-10.5 -49.73,15.56 -75.69,24.26 -43.22,14.5 -92.53,-34.91 -77.96,-78.09 6.63,-19.65 23.25,-36.76 21.87,-57.45 -1.88,-28.16 -36.69,-42.84 -64.58,-38.46 -27.88,4.37 -52.51,20.65 -79.86,27.61 -27.35,6.97 -62.78,-0.02 -72.39,-26.56 -8.61,-23.79 6.25,-55.75 -12.44,-72.81 -8,-7.31 -19.59,-8.82 -30.38,-9.84 -236.862,-22.49 -497.717,-64.981 -471.214,-107.071 7.247,-11.488 25.77,-7.84 39.364,-7.617 504.15,7.886 957.42,8.027 1466.07,7.75" /><path
         id="path112"
         style="fill:#4d41a1;fill-opacity:1;fill-rule:nonzero;stroke:none"
         d="M 3499.46,922.191 H 1548.4 c -38.33,0 -69.4,31.071 -69.4,69.399 v 2816.05 c 0,38.33 31.07,69.41 69.4,69.41 h 1951.06 c 38.33,0 69.41,-31.08 69.41,-69.41 V 991.59 c 0,-38.328 -31.08,-69.399 -69.41,-69.399" /><path
         id="path114"
         style="fill:#b3a8db;fill-opacity:1;fill-rule:nonzero;stroke:none"
         d="M 3407.68,1038.08 H 1640.19 c -22.12,0 -40.06,17.94 -40.06,40.06 v 2642.95 c 0,22.13 17.94,40.07 40.06,40.07 h 1767.49 c 22.12,0 40.05,-17.94 40.05,-40.07 V 1078.14 c 0,-22.12 -17.93,-40.06 -40.05,-40.06" /><path
         id="path116"
         style="fill:#ffffff;fill-opacity:1;fill-rule:nonzero;stroke:none"
         d="M 3327.08,1121.27 H 1720.79 c -27.41,0 -49.62,22.22 -49.62,49.61 v 2457.47 c 0,27.4 22.21,49.61 49.62,49.61 h 1606.29 c 27.4,0 49.61,-22.21 49.61,-49.61 V 1170.88 c 0,-27.39 -22.21,-49.61 -49.61,-49.61" /><path
         id="path118"
         style="fill:#f9a818;fill-opacity:1;fill-rule:nonzero;stroke:none"
         d="m 2544.97,3962.98 c -34.35,0 -62.2,27.85 -62.2,62.2 0,34.36 27.85,62.21 62.2,62.21 34.36,0 62.21,-27.85 62.21,-62.21 0,-34.35 -27.85,-62.2 -62.21,-62.2 m 0,174.5 c -61.23,0 -110.87,-49.64 -110.87,-110.87 v -142.1 h 221.75 c 0,0 0,112.86 0,142.1 0,61.23 -49.64,110.87 -110.88,110.87" /><path
         id="path120"
         style="fill:#eec681;fill-opacity:1;fill-rule:nonzero;stroke:none"
         d="m 2583.17,3976.09 c 13.33,11.42 24.01,30.17 24.01,49.09 0,-19.95 -9.39,-37.7 -24,-49.08 0,0 0,-0.01 -0.01,-0.01 m 24.01,49.09 c 0,34.36 -27.85,62.21 -62.21,62.21 -3.19,0 -6.27,-0.48 -9.33,-0.94 0.33,0.13 0.66,0.26 0.97,0.39 2.74,0.36 5.53,0.55 8.36,0.55 34.36,0 62.21,-27.85 62.21,-62.21 v 0 m -173.08,1.43 c 0,0.11 0,0.22 0,0.33 0,-0.11 0,-0.22 0,-0.33 m 0,0.44 c 0,0.08 0,0.15 0,0.23 0,-0.08 0,-0.15 0,-0.23 m 0,0.35 c 0,0.07 0,0.14 0,0.21 0,-0.07 0,-0.14 0,-0.21 m 0,0.34 c 0,0.07 0,0.15 0,0.22 0,-0.07 0,-0.15 0,-0.22 m 0.01,0.33 c 0,0.11 0,0.22 0,0.32 0,-0.1 0,-0.21 0,-0.32 m 0,0.4 c 0,0.08 0,0.17 0.01,0.25 -0.01,-0.08 -0.01,-0.17 -0.01,-0.25 m 0.01,0.39 c 0,0.06 0,0.12 0,0.18 0,-0.06 0,-0.11 0,-0.18 m 0.01,0.34 c 0,0.06 0,0.12 0,0.18 0,-0.06 0,-0.12 0,-0.18 m 0,0.33 c 0.01,0.06 0.01,0.11 0.01,0.17 0,-0.06 0,-0.11 -0.01,-0.17 m 0.01,0.33 c 0,0.05 0.01,0.09 0.01,0.14 0,-0.05 -0.01,-0.09 -0.01,-0.14 m 0.02,0.5 c 0,0.04 0,0.08 0,0.12 0,-0.04 0,-0.08 0,-0.12 m 0.01,0.33 c 0,0.03 0,0.06 0,0.1 0,-0.04 0,-0.07 0,-0.1 m 0.01,0.32 c 0,0.03 0,0.05 0.01,0.08 -0.01,-0.03 -0.01,-0.05 -0.01,-0.08" /><path
         id="path122"
         style="fill:#f68914;fill-opacity:1;fill-rule:nonzero;stroke:none"
         d="m 2467.97,3906.1 h -33.87 v 120.51 c 0,0.11 0,0.22 0,0.33 0,0.04 0,0.08 0,0.11 0,0.08 0,0.15 0,0.23 0,0.04 0,0.08 0,0.12 0,0.07 0,0.14 0,0.21 0,0.04 0,0.09 0,0.13 0,0.07 0,0.15 0,0.22 0,0.04 0.01,0.07 0.01,0.11 0,0.11 0,0.22 0,0.32 0,0.03 0,0.05 0,0.08 0,0.08 0,0.17 0.01,0.25 0,0.05 0,0.09 0,0.14 0,0.07 0,0.12 0,0.18 0,0.06 0,0.1 0.01,0.16 0,0.06 0,0.12 0,0.18 0,0.05 0,0.1 0,0.15 0.01,0.06 0.01,0.11 0.01,0.17 0,0.05 0,0.11 0,0.16 0,0.05 0.01,0.09 0.01,0.14 0,0.12 0,0.24 0.01,0.36 0,0.04 0,0.08 0,0.12 0,0.07 0.01,0.14 0.01,0.21 0,0.03 0,0.06 0,0.1 0.01,0.07 0.01,0.15 0.01,0.22 0,0.03 0,0.05 0.01,0.08 1.93,48.71 35.32,89.24 80.39,102.07 -29.87,-19.86 -46.61,-53.8 -46.61,-92.36 v -134.7 m 115.21,70 c 14.61,11.38 24,29.13 24,49.08 v 0 0 0 c 0,34.36 -27.85,62.21 -62.21,62.21 -2.83,0 -5.62,-0.19 -8.36,-0.55 8.41,3.39 9.39,5.66 24.26,5.66 34.35,0 62.21,-27.86 62.21,-62.21 0,-31.15 -15.9,-48.03 -39.9,-54.19" /><path
         id="path124"
         style="fill:#f9a818;fill-opacity:1;fill-rule:nonzero;stroke:none"
         d="M 3196.1,3828.13 V 3717.08 H 1851.72 v 111.05 c 0,43.1 34.98,77.97 77.96,77.97 h 1188.45 c 43.1,0 77.97,-34.87 77.97,-77.97" /><path
         id="path126"
         style="fill:#f68914;fill-opacity:1;fill-rule:nonzero;stroke:none"
         d="M 3196.1,3717.08 H 1851.72 v 111.05 c 0,43.1 34.98,77.97 77.96,77.97 h 10.78 c -20.66,-19.77 -36.76,-49.98 -36.76,-80.86 v -80.4 h 1292.4 v -27.76" /><path
         id="path128"
         style="fill:#ebe7f5;fill-opacity:1;fill-rule:nonzero;stroke:none"
         d="m 2421.19,3388.83 h -277.04 c -9.57,0 -17.33,7.76 -17.33,17.33 0,9.58 7.76,17.34 17.33,17.34 h 277.04 c 9.57,0 17.33,-7.76 17.33,-17.34 0,-9.57 -7.76,-17.33 -17.33,-17.33" /><path
         id="path130"
         style="fill:#ebe7f5;fill-opacity:1;fill-rule:nonzero;stroke:none"
         d="m 3253.55,3300.51 h -210.66 c -9.57,0 -17.33,7.76 -17.33,17.33 0,9.58 7.76,17.34 17.33,17.34 h 210.66 c 9.57,0 17.33,-7.76 17.33,-17.34 0,-9.57 -7.76,-17.33 -17.33,-17.33" /><path
         id="path132"
         style="fill:#ebe7f5;fill-opacity:1;fill-rule:nonzero;stroke:none"
         d="m 2951.61,3300.51 h -807.46 c -9.57,0 -17.33,7.76 -17.33,17.33 0,9.58 7.76,17.34 17.33,17.34 h 807.46 c 9.57,0 17.34,-7.76 17.34,-17.34 0,-9.57 -7.77,-17.33 -17.34,-17.33" /><path
         id="path134"
         style="fill:#ebe7f5;fill-opacity:1;fill-rule:nonzero;stroke:none"
         d="m 3253.55,3212.18 h -1109.4 c -9.57,0 -17.33,7.76 -17.33,17.34 0,9.57 7.76,17.33 17.33,17.33 h 1109.4 c 9.57,0 17.33,-7.76 17.33,-17.33 0,-9.58 -7.76,-17.34 -17.33,-17.34" /><path
         id="path136"
         style="fill:#ebe7f5;fill-opacity:1;fill-rule:nonzero;stroke:none"
         d="m 3253.55,3123.86 h -352.63 c -9.57,0 -17.34,7.76 -17.34,17.33 0,9.58 7.77,17.33 17.34,17.33 h 352.63 c 9.57,0 17.33,-7.75 17.33,-17.33 0,-9.57 -7.76,-17.33 -17.33,-17.33" /><path
         id="path138"
         style="fill:#ebe7f5;fill-opacity:1;fill-rule:nonzero;stroke:none"
         d="m 2813.14,3123.86 h -668.99 c -9.57,0 -17.33,7.76 -17.33,17.33 0,9.58 7.76,17.33 17.33,17.33 h 668.99 c 9.57,0 17.34,-7.75 17.34,-17.33 0,-9.57 -7.77,-17.33 -17.34,-17.33" /><path
         id="path140"
         style="fill:#ebe7f5;fill-opacity:1;fill-rule:nonzero;stroke:none"
         d="M 3253.55,3388.83 H 2512.1 c -9.58,0 -17.33,7.76 -17.33,17.33 0,9.58 7.75,17.34 17.33,17.34 h 741.45 c 9.57,0 17.33,-7.76 17.33,-17.34 0,-9.57 -7.76,-17.33 -17.33,-17.33" /><path
         id="path142"
         style="fill:#ebe7f5;fill-opacity:1;fill-rule:nonzero;stroke:none"
         d="m 2421.19,2753.9 h -277.04 c -9.57,0 -17.33,7.76 -17.33,17.34 0,9.57 7.76,17.33 17.33,17.33 h 277.04 c 9.57,0 17.33,-7.76 17.33,-17.33 0,-9.58 -7.76,-17.34 -17.33,-17.34" /><path
         id="path144"
         style="fill:#ebe7f5;fill-opacity:1;fill-rule:nonzero;stroke:none"
         d="m 3253.55,2665.58 h -210.66 c -9.57,0 -17.33,7.76 -17.33,17.33 0,9.58 7.76,17.34 17.33,17.34 h 210.66 c 9.57,0 17.33,-7.76 17.33,-17.34 0,-9.57 -7.76,-17.33 -17.33,-17.33" /><path
         id="path146"
         style="fill:#ebe7f5;fill-opacity:1;fill-rule:nonzero;stroke:none"
         d="m 2951.61,2665.58 h -807.46 c -9.57,0 -17.33,7.76 -17.33,17.33 0,9.58 7.76,17.34 17.33,17.34 h 807.46 c 9.57,0 17.34,-7.76 17.34,-17.34 0,-9.57 -7.77,-17.33 -17.34,-17.33" /><path
         id="path148"
         style="fill:#ebe7f5;fill-opacity:1;fill-rule:nonzero;stroke:none"
         d="m 3253.55,2577.26 h -1109.4 c -9.57,0 -17.33,7.75 -17.33,17.33 0,9.58 7.76,17.33 17.33,17.33 h 1109.4 c 9.57,0 17.33,-7.75 17.33,-17.33 0,-9.58 -7.76,-17.33 -17.33,-17.33" /><path
         id="path150"
         style="fill:#ebe7f5;fill-opacity:1;fill-rule:nonzero;stroke:none"
         d="m 3253.55,2488.94 h -352.63 c -9.57,0 -17.34,7.75 -17.34,17.33 0,9.57 7.77,17.33 17.34,17.33 h 352.63 c 9.57,0 17.33,-7.76 17.33,-17.33 0,-9.58 -7.76,-17.33 -17.33,-17.33" /><path
         id="path152"
         style="fill:#ebe7f5;fill-opacity:1;fill-rule:nonzero;stroke:none"
         d="m 2813.14,2488.94 h -668.99 c -9.57,0 -17.33,7.75 -17.33,17.33 0,9.57 7.76,17.33 17.33,17.33 h 668.99 c 9.57,0 17.34,-7.76 17.34,-17.33 0,-9.58 -7.77,-17.33 -17.34,-17.33" /><path
         id="path154"
         style="fill:#ebe7f5;fill-opacity:1;fill-rule:nonzero;stroke:none"
         d="M 3253.55,2753.9 H 2512.1 c -9.58,0 -17.33,7.76 -17.33,17.34 0,9.57 7.75,17.33 17.33,17.33 h 741.45 c 9.57,0 17.33,-7.76 17.33,-17.33 0,-9.58 -7.76,-17.34 -17.33,-17.34" /><path
         id="path156"
         style="fill:#ebe7f5;fill-opacity:1;fill-rule:nonzero;stroke:none"
         d="m 2421.19,2141.19 h -277.04 c -9.57,0 -17.33,7.77 -17.33,17.34 0,9.57 7.76,17.33 17.33,17.33 h 277.04 c 9.57,0 17.33,-7.76 17.33,-17.33 0,-9.57 -7.76,-17.34 -17.33,-17.34" /><path
         id="path158"
         style="fill:#ebe7f5;fill-opacity:1;fill-rule:nonzero;stroke:none"
         d="m 3253.55,2052.87 h -210.66 c -9.57,0 -17.33,7.76 -17.33,17.34 0,9.57 7.76,17.33 17.33,17.33 h 210.66 c 9.57,0 17.33,-7.76 17.33,-17.33 0,-9.58 -7.76,-17.34 -17.33,-17.34" /><path
         id="path160"
         style="fill:#ebe7f5;fill-opacity:1;fill-rule:nonzero;stroke:none"
         d="m 2951.61,2052.87 h -339.45 l -19.63,8.67 c -3.52,-0.95 -8.88,-0.99 -14.8,-0.99 -0.22,0 -0.44,0 -0.66,0 -0.16,0 -0.31,0 -0.47,0 -12.12,0 -26.21,-0.09 -31.58,-7.68 h -400.87 c -9.57,0 -17.33,7.76 -17.33,17.34 0,9.57 7.76,17.33 17.33,17.33 h 807.46 c 9.57,0 17.34,-7.76 17.34,-17.33 0,-9.58 -7.77,-17.34 -17.34,-17.34" /><path
         id="path162"
         style="fill:#ebe7f5;fill-opacity:1;fill-rule:nonzero;stroke:none"
         d="m 3035.36,1964.54 h -373.69 l 9.54,34.67 h 582.34 c 9.57,0 17.33,-7.76 17.33,-17.33 0,-4.07 -1.4,-7.8 -3.74,-10.76 h -220.83 c -4.84,0 -8.89,-2.72 -10.95,-6.58 m -520.02,0 h -371.19 c -9.57,0 -17.33,7.76 -17.33,17.34 0,9.57 7.76,17.33 17.33,17.33 h 381.1 c -3.91,-11.3 -6.92,-23.05 -9.91,-34.67" /><path
         id="path164"
         style="fill:#ebe7f5;fill-opacity:1;fill-rule:nonzero;stroke:none"
         d="m 3056.03,1876.22 h -155.11 c -9.57,0 -17.34,7.76 -17.34,17.33 0,9.57 7.77,17.34 17.34,17.34 h 145.63 l 9.48,-34.67" /><path
         id="path166"
         style="fill:#ebe7f5;fill-opacity:1;fill-rule:nonzero;stroke:none"
         d="m 2813.14,1876.22 h -182.98 c 7.87,10.08 13.24,23.41 16.68,34.67 h 166.3 c 9.57,0 17.34,-7.77 17.34,-17.34 0,-9.57 -7.77,-17.33 -17.34,-17.33 m -300.08,0 h -368.91 c -9.57,0 -17.33,7.76 -17.33,17.33 0,9.57 7.76,17.34 17.33,17.34 h 358.84 c -1.12,-13.52 0.84,-26.38 10.07,-34.67" /><path
         id="path168"
         style="fill:#ebe7f5;fill-opacity:1;fill-rule:nonzero;stroke:none"
         d="M 3253.55,2141.19 H 2512.1 c -9.58,0 -17.33,7.77 -17.33,17.34 0,9.57 7.75,17.33 17.33,17.33 h 741.45 c 9.57,0 17.33,-7.76 17.33,-17.33 0,-9.57 -7.76,-17.34 -17.33,-17.34" /><path
         id="path170"
         style="fill:#ebe7f5;fill-opacity:1;fill-rule:nonzero;stroke:none"
         d="m 2363.99,1517.37 h -11.48 l -24.27,34.67 h 58.72 c -1.24,-10.78 -1.95,-17.71 -2.08,-18.99 -0.18,-1.77 -8.39,-7.66 -20.89,-15.68 m -205.22,0 h -14.62 c -9.57,0 -17.33,7.77 -17.33,17.34 0,6.6 3.69,12.34 9.12,15.27 l 22.83,-32.61" /><path
         id="path172"
         style="fill:#ebe7f5;fill-opacity:1;fill-rule:nonzero;stroke:none"
         d="m 3253.55,1429.05 h -210.66 c -9.57,0 -17.33,7.77 -17.33,17.34 0,9.57 7.76,17.33 17.33,17.33 h 210.66 c 9.57,0 17.33,-7.76 17.33,-17.33 0,-9.57 -7.76,-17.34 -17.33,-17.34" /><path
         id="path174"
         style="fill:#ebe7f5;fill-opacity:1;fill-rule:nonzero;stroke:none"
         d="m 2951.61,1429.05 h -211.37 c 1.59,10.07 3.74,21.99 6.16,34.67 h 205.21 c 9.57,0 17.34,-7.76 17.34,-17.33 0,-9.57 -7.77,-17.34 -17.34,-17.34 m -455.04,0 h -82.22 l -22.39,31.98 c 1.1,0.46 2.17,0.92 3.24,1.38 0.03,0.01 0.07,0.03 0.1,0.04 0.04,0.02 0.09,0.04 0.14,0.06 0.05,0.02 0.09,0.04 0.14,0.06 0.02,0.01 0.05,0.02 0.07,0.03 0.06,0.03 0.13,0.06 0.19,0.08 0.01,0.01 0.02,0.01 0.02,0.01 0.79,0.35 1.57,0.69 2.35,1.03 h 100.16 c -0.52,-12.46 -1.17,-24.42 -1.8,-34.67 m -275.97,0 h -76.45 c -9.57,0 -17.33,7.77 -17.33,17.34 0,9.57 7.76,17.33 17.33,17.33 h 52.18 l 24.27,-34.67" /><path
         id="path176"
         style="fill:#ebe7f5;fill-opacity:1;fill-rule:nonzero;stroke:none"
         d="M 3253.55,1340.72 H 2730.2 c -2.03,4.6 -4.31,9.18 -6.86,13.73 10.27,2.63 17.77,5.69 20.79,9.18 2.59,3 1.59,6.63 -0.33,11.76 h 509.75 c 9.57,0 17.33,-7.76 17.33,-17.33 0,-9.57 -7.76,-17.34 -17.33,-17.34 m -761.35,0 h -16 l -24.27,34.67 h 32.95 c -0.77,-2.98 -0.8,-6.6 0.59,-11.76 0.68,-2.52 4.02,-4.95 9.21,-7.22 -0.27,-2.6 -0.66,-5.39 -1.14,-8.3 -0.38,-2.17 -0.83,-4.64 -1.34,-7.39 m -209.75,0 h -138.3 c -9.57,0 -17.33,7.77 -17.33,17.34 0,9.57 7.76,17.33 17.33,17.33 h 114.02 l 24.28,-34.67" /><path
         id="path178"
         style="fill:#ebe7f5;fill-opacity:1;fill-rule:nonzero;stroke:none"
         d="m 3253.55,1252.4 h -352.63 c -9.57,0 -17.34,7.77 -17.34,17.34 0,9.57 7.77,17.33 17.34,17.33 h 352.63 c 9.57,0 17.33,-7.76 17.33,-17.33 0,-9.57 -7.76,-17.34 -17.33,-17.34" /><path
         id="path180"
         style="fill:#ebe7f5;fill-opacity:1;fill-rule:nonzero;stroke:none"
         d="m 2813.14,1252.4 h -68.07 c 0.64,10.82 0.55,22.52 -0.74,34.67 h 68.81 c 9.57,0 17.34,-7.76 17.34,-17.33 0,-9.57 -7.77,-17.34 -17.34,-17.34 m -468.86,0 h -200.13 c -9.57,0 -17.33,7.77 -17.33,17.34 0,9.57 7.76,17.33 17.33,17.33 h 175.86 l 24.27,-34.67" /><path
         id="path182"
         style="fill:#ebe7f5;fill-opacity:1;fill-rule:nonzero;stroke:none"
         d="m 3253.55,1517.37 h -496.46 c 2.58,12.64 5.03,24.55 7.06,34.67 h 489.4 c 9.57,0 17.33,-7.76 17.33,-17.33 0,-9.57 -7.76,-17.34 -17.33,-17.34 m -754.37,5.79 c -2.75,3.06 -4.41,7.11 -4.41,11.55 0,3.62 1.11,6.99 3.01,9.77 0.71,-6.02 1.16,-13.28 1.4,-21.32" /><path
         id="path184"
         style="fill:#b3a8db;fill-opacity:1;fill-rule:nonzero;stroke:none"
         d="m 2029.59,3178.84 v 5.56 h -211.94 c -8.54,0.01 -15.45,6.92 -15.47,15.46 v 211.94 c 0.02,8.54 6.93,15.45 15.47,15.46 h 211.94 c 8.54,-0.01 15.45,-6.92 15.46,-15.46 v -211.94 c -0.01,-8.54 -6.92,-15.45 -15.46,-15.46 v -5.56 -5.55 c 14.68,0 26.56,11.89 26.57,26.57 v 211.94 c 0,14.68 -11.89,26.57 -26.57,26.57 h -211.94 c -14.68,0 -26.57,-11.89 -26.57,-26.57 v -211.94 c 0,-14.68 11.89,-26.57 26.57,-26.57 h 211.94 v 5.55" /><path
         id="path186"
         style="fill:#b3a8db;fill-opacity:1;fill-rule:nonzero;stroke:none"
         d="m 2029.59,2545.98 v 5.55 h -211.94 c -8.54,0.02 -15.45,6.92 -15.47,15.47 v 211.94 c 0.02,8.53 6.93,15.45 15.47,15.46 h 211.94 c 8.54,-0.01 15.45,-6.93 15.46,-15.46 V 2567 c -0.01,-8.55 -6.92,-15.45 -15.46,-15.47 v -5.55 -5.56 c 14.68,0.01 26.57,11.9 26.57,26.58 v 211.94 c -0.01,14.67 -11.89,26.56 -26.57,26.57 h -211.94 c -14.68,0 -26.57,-11.9 -26.57,-26.57 V 2567 c 0,-14.68 11.89,-26.57 26.57,-26.58 h 211.94 v 5.56" /><path
         id="path188"
         style="fill:#b3a8db;fill-opacity:1;fill-rule:nonzero;stroke:none"
         d="m 2029.59,1913.12 v 5.55 h -211.94 c -8.54,0.01 -15.45,6.92 -15.47,15.46 v 211.93 c 0.02,8.55 6.93,15.46 15.47,15.48 h 211.94 c 8.54,-0.02 15.45,-6.93 15.46,-15.48 v -211.93 c -0.01,-8.54 -6.92,-15.45 -15.46,-15.46 v -5.55 -5.56 c 14.67,0 26.56,11.89 26.57,26.57 v 211.93 c -0.01,14.68 -11.89,26.58 -26.57,26.58 h -211.94 c -14.68,0 -26.57,-11.9 -26.57,-26.58 v -211.93 c 0,-14.68 11.89,-26.57 26.57,-26.57 h 211.94 v 5.56" /><path
         id="path190"
         style="fill:#b3a8db;fill-opacity:1;fill-rule:nonzero;stroke:none"
         d="m 2029.59,1280.24 v 5.56 h -211.94 c -8.54,0.01 -15.45,6.93 -15.47,15.47 v 211.93 c 0.02,8.55 6.93,15.46 15.47,15.48 h 211.94 c 8.54,-0.02 15.45,-6.93 15.46,-15.48 v -211.93 c -0.01,-8.54 -6.92,-15.46 -15.46,-15.47 v -5.56 -5.55 c 14.68,0.01 26.56,11.9 26.57,26.58 v 211.93 c -0.01,14.68 -11.89,26.58 -26.57,26.58 h -211.94 c -14.68,0 -26.57,-11.9 -26.57,-26.58 v -211.93 c 0,-14.68 11.89,-26.57 26.57,-26.58 h 211.94 v 5.55" /><path
         id="path192"
         style="fill:#f9a818;fill-opacity:1;fill-rule:nonzero;stroke:none"
         d="m 1923.62,3215.66 c -5.72,0 -11.17,2.54 -14.85,6.98 l -95.73,115.61 c -6.79,8.2 -5.64,20.34 2.56,27.13 8.19,6.79 20.33,5.65 27.12,-2.55 l 78.82,-95.18 170,268.22 c 5.7,9 17.62,11.65 26.59,5.97 8.99,-5.7 11.66,-17.61 5.96,-26.59 l -184.2,-290.64 c -3.3,-5.21 -8.9,-8.52 -15.05,-8.91 l -1.22,-0.04" /><path
         id="path194"
         style="fill:#f9a818;fill-opacity:1;fill-rule:nonzero;stroke:none"
         d="m 1923.62,2588.07 c -5.72,0 -11.17,2.54 -14.85,6.97 l -95.73,115.61 c -6.79,8.2 -5.64,20.35 2.56,27.13 8.19,6.8 20.33,5.65 27.12,-2.55 l 78.82,-95.18 170,268.23 c 5.7,9 17.62,11.64 26.59,5.96 8.99,-5.7 11.66,-17.6 5.96,-26.59 l -184.2,-290.63 c -3.3,-5.21 -8.9,-8.53 -15.05,-8.92 l -1.22,-0.03" /><path
         id="path196"
         style="fill:#f9a818;fill-opacity:1;fill-rule:nonzero;stroke:none"
         d="m 1923.62,1957.74 c -5.73,0 -11.17,2.54 -14.85,6.98 l -95.73,115.61 c -6.79,8.2 -5.64,20.34 2.56,27.13 8.19,6.79 20.33,5.66 27.12,-2.55 l 78.82,-95.18 170,268.23 c 5.7,8.99 17.62,11.63 26.59,5.96 8.99,-5.7 11.66,-17.6 5.96,-26.6 l -184.2,-290.62 c -3.3,-5.22 -8.9,-8.53 -15.05,-8.92 l -1.22,-0.04" /><path
         id="path198"
         style="fill:#6658b1;fill-opacity:1;fill-rule:nonzero;stroke:none"
         d="m 2436.45,1777.69 c -29.78,-32.01 -50.79,-237.04 -51.57,-244.64 -0.78,-7.61 -150.77,-92 -150.77,-92 l 21.12,-24.16 c 0,0 159.83,40.25 188.58,75.01 24.38,29.49 80.73,270.52 80.73,270.52 0,0 -38.68,68.35 -88.09,15.27" /><path
         id="path200"
         style="fill:#e4ddf2;fill-opacity:1;fill-rule:nonzero;stroke:none"
         d="m 2669.29,365.379 c -246.77,0 -446.81,13.691 -446.81,30.59 0,16.89 200.04,30.59 446.81,30.59 246.76,0 446.8,-13.7 446.8,-30.59 0,-16.899 -200.04,-30.59 -446.8,-30.59" /><path
         id="path202"
         style="fill:#ee8d73;fill-opacity:1;fill-rule:nonzero;stroke:none"
         d="m 2896.88,526.789 c 0,0 12.02,-24.519 18.06,-32.277 6.06,-7.742 32.32,9.808 32.5,16.148 0.18,6.352 -23.33,44.93 -23.33,44.93" /><path
         id="path204"
         style="fill:#343434;fill-opacity:1;fill-rule:nonzero;stroke:none"
         d="m 2959.07,508.25 c 5.69,-8.508 15.01,-25.43 15.01,-25.43 l -23.19,-22.398 -6.07,2.75 c 0,0 -3.81,-11.043 -10.85,-18.152 -5.22,-5.27 -17.38,-14.059 -23.98,-17.321 -23.11,-11.39 -42.45,-13.129 -45.09,-10.187 -11.03,12.269 19.52,27.699 25.25,31.707 16.44,11.543 20.94,31.191 19.23,42.312 -1.25,8.078 -3.53,8.75 0.63,9.989 0,0 3.51,1.5 8.07,-0.848 7,-3.59 15.53,-3.293 21.23,2.387 3.25,3.242 6.01,7.25 6.8,11.953 0,0 7.29,1.758 12.96,-6.762" /><path
         id="path206"
         style="fill:#ee8d73;fill-opacity:1;fill-rule:nonzero;stroke:none"
         d="m 2455.07,477.93 c 0,0 -5.9,-14.5 -5.17,-24.051 0.74,-9.547 32.49,-10.27 36.18,-5.32 3.69,4.961 5.54,48.832 5.54,48.832" /><path
         id="path208"
         style="fill:#343434;fill-opacity:1;fill-rule:nonzero;stroke:none"
         d="m 2494.47,440.141 c 0,-9.95 -2.89,-26.18 -2.89,-26.18 H 2455 l -1.81,5.848 c 0,0 -11.86,-5.848 -21.18,-5.848 h -30.87 c -22.61,0 -35.44,2.758 -36.01,6.57 -2.39,15.93 24.61,15.211 31.64,15.211 20.19,0 42.05,9.047 46.81,18.879 3.46,7.129 1.93,8.93 6.11,7.598 0,0 3.76,-0.77 6.27,-5.188 3.85,-6.781 11.15,-11.312 19.07,-9.972 4.54,0.761 9.09,2.421 12.37,5.711 0,0 7.07,-2.668 7.07,-12.629" /><path
         id="path210"
         style="fill:#363495;fill-opacity:1;fill-rule:nonzero;stroke:none"
         d="m 2641.5,1142.22 c -0.11,-0.67 -7.56,7.47 -15.02,15.61 -7.5,8.16 -15.01,16.32 -15.17,15.6 -11.79,-59.45 -66.64,-258.258 -84.84,-310.418 v -0.102 c -2.69,-7.289 -16.76,-23.031 -28.43,-26.012 -26.79,-6.976 -69.53,2.184 -72.96,53.422 -0.43,5.649 0.86,11.821 0.21,18.481 -7.63,78.91 67.84,426.839 69.77,449.009 1.19,14.53 20.33,12.67 36.82,10.82 8.69,-0.98 16.64,-1.95 20.85,-0.53 60.96,20.22 104.73,-142.71 88.77,-225.88" /><path
         id="path212"
         style="fill:#363495;fill-opacity:1;fill-rule:nonzero;stroke:none"
         d="m 2529.97,834.84 c -12.38,37.031 6.42,80.41 6.42,80.41 0,0 -105.24,80.922 -110.6,31.539 -0.53,-3.91 -4.44,-37.379 -4.43,-56.238 0.04,-67.539 23.51,-281.422 21.79,-412.02 v -8.519 c 0,0 17.57,-3.5 48.43,-3.18 1.39,0 2.89,0 4.39,0.09 8.8,81.34 27.82,191.937 36.84,303.199 2.22,27.289 -0.79,58.609 -2.84,64.719" /><path
         id="path214"
         style="fill:#363495;fill-opacity:1;fill-rule:nonzero;stroke:none"
         d="m 2793.29,829.512 c -20.7,27.23 -42.54,39.429 -49.01,60.16 -15.03,48.226 -10.96,243.848 -12.39,298.148 4.27,11.12 44.13,122.15 -36.75,203.96 0,0 -72.72,-33.04 -130.95,-37.02 -45.85,-3.15 -69.13,1.68 -69.13,1.68 0,0 43.3,-69.17 45.83,-99.84 4.3,-52.09 96.26,-366.67 103.28,-383.92 15.97,-39.258 33.62,-54.719 39.46,-62.77 40.77,-56.172 136.18,-174.301 208.54,-287.441 l 4.89,-7.309 c 0,0 14.52,5.262 41.58,24.93 -38.97,75.34 -79.75,203.109 -145.35,289.422" /><path
         id="path216"
         style="fill:#6658b1;fill-opacity:1;fill-rule:nonzero;stroke:none"
         d="m 2436.45,1777.69 c 14.77,16.94 78.17,43.14 140.85,41.16 43.2,-1.36 180.47,-15.5 193.62,-44.39 6.72,-14.77 6.07,-154.96 -3.77,-207.11 -7.39,-39.21 -29.74,-139.98 -29.74,-163.41 0,-23.45 12.6,-33.5 6.72,-40.31 -13.16,-15.25 -111.53,-22.08 -153.79,-22.08 -37.61,0 -101.62,10.03 -104.87,22.08 -4.82,17.88 7.34,17.22 8.99,35.96 1.65,18.75 10.51,142.39 -0.5,160.36 -17.48,28.53 -44.03,109.37 -45.37,130.86 -1.34,21.49 -26.92,69.92 -12.14,86.88" /><path
         id="path218"
         style="fill:#ee8d73;fill-opacity:1;fill-rule:nonzero;stroke:none"
         d="m 2540.43,1872.08 c 0,0 -0.42,-52.17 -2.52,-54.27 -2.1,-2.11 -12.41,-6.98 -12.41,-6.98 0,0 7.35,-45.32 18.71,-41.96 11.36,3.37 86.37,41.25 86.37,41.25 0,0 -10.64,4.32 -10.64,8.53 0,4.21 10.1,86.24 10.1,86.24 l -89.61,-32.81" /><path
         id="path220"
         style="fill:#1e1f4c;fill-opacity:1;fill-rule:nonzero;stroke:none"
         d="m 2560.69,2043.56 c -9.08,6.86 -22.13,7.12 -32.36,2.16 -10.24,-4.96 -17.77,-14.49 -22.08,-25.02 -4.17,-10.16 -5.43,-22.27 -0.05,-31.84 -7.54,-2.47 -12.24,-10.68 -12.24,-18.61 -0.01,-8.63 5.09,-16.97 9.64,-23.94 4.37,-6.7 13.83,-10.74 21.61,-9.01 5.59,1.25 10.35,5.06 13.77,9.64 3.43,4.58 5.69,9.93 7.77,15.26 9.63,24.72 16.17,50.56 20.97,76.66" /><path
         id="path222"
         style="fill:#ee8d73;fill-opacity:1;fill-rule:nonzero;stroke:none"
         d="m 2592.53,2061.54 c -3.65,-0.99 -9.28,-0.99 -15.46,-0.99 -12.36,0 -26.94,0.01 -32.24,-7.94 -7.95,-11.94 -14.91,-40.75 -17.89,-48.69 -5.92,-15.83 -9.8,-32.75 -14.11,-49.06 -5.62,-21.26 -20.06,-61.31 0.74,-79.09 5.98,-5.11 13.82,-5.7 21.23,-7.04 9.84,-1.79 19.64,-3.8 29.49,-5.57 15.26,-2.74 32.17,-5.93 47.32,-1.01 20.25,6.58 31.36,34.42 36.56,53.33 l 29.81,108.31 -85.45,37.75" /><path
         id="path224"
         style="fill:#ee8d73;fill-opacity:1;fill-rule:nonzero;stroke:none"
         d="m 2637.26,1904.67 c 0,0 -0.61,-5.01 2.88,-8.49 3.05,-3.06 8.42,-1.94 12,-0.3 10.21,4.66 16.32,15.84 17.08,26.74 0.9,12.84 -7.32,24.64 -18.45,20.03 -6.5,-2.69 -9.82,-10.81 -8.94,-17.81" /><path
         id="path226"
         style="fill:#282251;fill-opacity:1;fill-rule:nonzero;stroke:none"
         d="m 2664.64,1963.95 c -3.54,-10.76 -12.74,-35.2 -22.51,-32.83 -9.79,2.38 3.97,40.65 12.43,56.02 -12.3,0.04 -27.48,1.93 -31.9,13.41 -1,2.57 -1.79,5.91 -4.5,6.51 -2.2,0.48 -4.18,-1.32 -6.08,-2.55 -8.62,-5.59 -20.41,-0.13 -27.29,7.52 -1.58,1.76 -3.41,3.8 -5.76,3.63 -1.44,-0.09 -2.67,-1.03 -3.85,-1.87 -14.19,-10.07 -51.87,-9.57 -51.74,8.13 -12.41,-6.3 -20.45,9.07 -19.71,19.57 0.74,10.51 8.61,28.07 25.71,27.63 -0.85,12.92 9.3,21.03 19.57,28.91 10.28,7.88 23.38,11.38 36.32,11.98 20.43,0.93 43.67,-7.5 50.64,-26.72 0.5,-1.4 1.01,-2.94 2.28,-3.7 1.41,-0.83 3.2,-0.37 4.78,0.05 15.51,4.15 33.37,1.72 45.32,-9 11.96,-10.72 15.98,-30.38 6.77,-43.52 11.97,-2.83 18.39,-17.06 16.51,-29.22 -1.87,-12.16 -9.84,-22.42 -18.13,-31.51 12.96,-4.14 18.15,-21.89 11.58,-33.81 -6.58,-11.93 -23.46,-18.39 -36.94,-16.43 3.11,12.3 -2.23,26.45 -14.12,28.65" /><path
         id="path228"
         style="fill:#282251;fill-opacity:1;fill-rule:nonzero;stroke:none"
         d="m 2541.41,1756.42 c 0,0 -4.13,-191.98 -11.96,-308.76 l 28.24,-38.94 19.4,48.76 c 0,0 8.19,140.85 -18.36,297.6 l -17.32,1.34" /><path
         id="path230"
         style="fill:#1e1f4c;fill-opacity:1;fill-rule:nonzero;stroke:none"
         d="m 2534.9,1773.27 0.67,-2.64 c 1.26,-4.99 3.22,-9.78 5.84,-14.21 l 17.32,-1.34 c 0,0 11.78,6.17 13.34,12.8 1.56,6.63 -19.34,17.5 -19.34,17.5 l -2.53,-1 c -5.85,-2.3 -11.04,-6.03 -15.08,-10.84 l -0.22,-0.27" /><path
         id="path232"
         style="fill:#ececec;fill-opacity:1;fill-rule:nonzero;stroke:none"
         d="m 2621.86,1836.79 c 0,0 14.94,-10.69 23.61,-23.84 -8.91,-20.38 -35.4,-55.03 -57.58,-71.52 -10.36,27.8 -35.16,43.95 -35.16,43.95 0,0 62.91,13.02 69.13,51.41" /><path
         id="path234"
         style="fill:#ececec;fill-opacity:1;fill-rule:nonzero;stroke:none"
         d="m 2552.73,1785.38 c 0,0 -21.62,-8.57 -34.45,-32.74 0,0 -4.14,32.69 4.69,60.77 0,0 11.64,19.57 16.55,19.94 -2.03,-23.13 13.21,-47.97 13.21,-47.97" /><path
         id="path236"
         style="fill:#9f94d2;fill-opacity:1;fill-rule:nonzero;stroke:none"
         d="m 2529.97,834.84 c -2.9,8.691 -4.09,17.719 -4.21,26.461 0.01,0.031 0.03,0.058 0.04,0.09 0.11,-8.77 1.26,-17.832 4.17,-26.551 m -3.5,28.07 v 0 0.102 c 1.23,3.539 2.64,7.758 4.19,12.57 v 0 c -1.55,-4.812 -2.96,-9.031 -4.19,-12.57 v -0.102" /><path
         id="path238"
         style="fill:#8a7fc7;fill-opacity:1;fill-rule:nonzero;stroke:none"
         d="m 2530.66,875.582 c 3.94,12.219 8.82,28.258 14.21,46.609 v 0 c -5.39,-18.351 -10.27,-34.382 -14.21,-46.609 v 0" /><path
         id="path240"
         style="fill:#2f3188;fill-opacity:1;fill-rule:nonzero;stroke:none"
         d="m 2544.87,922.191 v 0 c 5.27,17.93 11.04,38.047 16.92,59.039 v 0 c -5.88,-20.98 -11.65,-41.121 -16.92,-59.039" /><path
         id="path242"
         style="fill:#2b2d7b;fill-opacity:1;fill-rule:nonzero;stroke:none"
         d="m 2525.76,861.301 c -0.39,28.539 10.63,53.949 10.63,53.949 0,0 -5.19,3.992 -13.32,9.66 2.57,7.11 4.86,13.18 6.38,17.18 1.38,3.601 3.35,17.012 5.6,35.949 l 7.29,-10.41 h 0.01 v 0 l 19.44,13.601 c -5.88,-20.992 -11.65,-41.109 -16.92,-59.039 -5.39,-18.351 -10.27,-34.39 -14.21,-46.609 -1.55,-4.812 -2.96,-9.031 -4.19,-12.57 v -0.102 0 l -0.67,-1.359 c 0,-0.051 0,-0.11 0,-0.16 -0.01,-0.032 -0.03,-0.059 -0.04,-0.09" /><path
         id="path244"
         style="fill:#2b2d7b;fill-opacity:1;fill-rule:nonzero;stroke:none"
         d="m 2515.76,618.172 c 0,0.898 -0.28,169.047 1.68,187.75 1.97,18.75 -10.85,40.457 -12.83,52.289 -1.51,9.078 10.04,43.43 18.46,66.699 8.13,-5.668 13.32,-9.66 13.32,-9.66 0,0 -11.02,-25.41 -10.63,-53.949 0.12,-8.742 1.31,-17.77 4.21,-26.461 v 0 c 1.54,-4.59 3.63,-23.438 3.62,-44.11 0,-6.82 -0.23,-13.839 -0.78,-20.609 v 0 c -4.2,-51.762 -10.55,-103.34 -17.05,-151.949" /><path
         id="path246"
         style="fill:#f9b191;fill-opacity:1;fill-rule:nonzero;stroke:none"
         d="m 2257.23,1450.96 c 1.54,6.4 -1.28,14.19 -5.68,19.08 -4.4,4.89 -10.44,8.04 -16.61,10.32 -1.63,0.61 -3.84,1 -4.81,-0.45 -0.69,-1.03 -0.29,-2.44 0.34,-3.5 2.35,-3.99 7.27,-5.83 9.8,-9.71 0.95,-1.46 1.51,-3.13 2.26,-4.69 2.78,-5.72 8.43,-9.97 14.7,-11.05" /><path
         id="path248"
         style="fill:#b3a0d7;fill-opacity:1;fill-rule:nonzero;stroke:none"
         d="m 2398.21,1463.72 v 0 c 19.71,8.7 36.02,17.82 44.24,26.64 -8.22,-8.82 -24.53,-17.94 -44.24,-26.64 m 44.26,26.66 c 0.02,0.03 0.05,0.05 0.07,0.08 -0.02,-0.03 -0.05,-0.05 -0.07,-0.08 m 0.1,0.11 c 0.02,0.02 0.04,0.05 0.07,0.07 -0.03,-0.02 -0.05,-0.05 -0.07,-0.07 m 0.1,0.1 c 0.02,0.03 0.04,0.05 0.06,0.08 -0.02,-0.03 -0.04,-0.05 -0.06,-0.08 m 0.1,0.11 c 0.02,0.03 0.04,0.05 0.06,0.08 -0.02,-0.03 -0.04,-0.05 -0.06,-0.08 m 0.09,0.1 c 0.02,0.03 0.04,0.06 0.07,0.08 -0.03,-0.02 -0.05,-0.05 -0.07,-0.08 m 0.08,0.09 c 0.05,0.06 0.1,0.12 0.16,0.18 -0.06,-0.06 -0.11,-0.12 -0.16,-0.18 m 0.17,0.2 c 0.02,0.02 0.04,0.05 0.06,0.07 -0.02,-0.02 -0.04,-0.05 -0.06,-0.07 m 0.1,0.11 c 0.01,0.02 0.03,0.04 0.05,0.06 -0.02,-0.02 -0.04,-0.04 -0.05,-0.06 m 0.09,0.11 c 0.02,0.02 0.04,0.04 0.05,0.06 -0.01,-0.02 -0.03,-0.04 -0.05,-0.06 m 0.1,0.11 c 0.01,0.01 0.03,0.03 0.04,0.05 -0.01,-0.02 -0.03,-0.04 -0.04,-0.05 m 0.09,0.11 c 0.02,0.02 0.03,0.03 0.05,0.05 -0.02,-0.02 -0.03,-0.03 -0.05,-0.05 m 0.1,0.11 c 0.01,0.02 0.02,0.03 0.04,0.05 -0.02,-0.02 -0.03,-0.03 -0.04,-0.05 m 0.09,0.12 c 0.02,0.01 0.03,0.02 0.04,0.04 -0.01,-0.02 -0.02,-0.03 -0.04,-0.04 m 0.18,0.21 c 0,0 0,0 0.01,0 -0.01,0 -0.01,0 -0.01,0 m 11.63,23.02 c 0.01,0.01 0.01,0.02 0.01,0.03 0,-0.01 0,-0.02 -0.01,-0.03 m 0.14,0.34 c 0,0.01 0.01,0.03 0.01,0.04 0,-0.01 -0.01,-0.03 -0.01,-0.04 m 0.14,0.35 c 0,0.02 0.01,0.03 0.02,0.05 -0.01,-0.01 -0.02,-0.03 -0.02,-0.05 m 0.07,0.2 c 0.01,0.01 0.01,0.02 0.02,0.03 -0.01,-0.01 -0.01,-0.02 -0.02,-0.03 m 0.06,0.14 c 0.01,0.02 0.01,0.04 0.02,0.06 -0.01,-0.02 -0.01,-0.04 -0.02,-0.06 m 0.08,0.2 c 0,0.02 0.02,0.05 0.02,0.07 0,-0.02 -0.01,-0.05 -0.02,-0.07 m 0.05,0.15 c 0.02,0.03 0.03,0.05 0.04,0.08 -0.01,-0.03 -0.02,-0.05 -0.04,-0.08 m 0.09,0.22 c 0.01,0.02 0.02,0.04 0.02,0.05 0,-0.02 -0.01,-0.03 -0.02,-0.05 m 0.05,0.12 c 0.01,0.03 0.02,0.06 0.04,0.09 -0.02,-0.03 -0.03,-0.06 -0.04,-0.09 m 0.07,0.19 c 0.02,0.03 0.03,0.07 0.05,0.11 -0.02,-0.04 -0.03,-0.08 -0.05,-0.11 m 0.07,0.18 c 0.02,0.03 0.03,0.06 0.04,0.09 -0.01,-0.03 -0.02,-0.06 -0.04,-0.09 m 0.09,0.22 c 0.01,0.02 0.01,0.03 0.02,0.05 -0.01,-0.01 -0.01,-0.03 -0.02,-0.05 m 0.06,0.15 c 0.01,0.03 0.01,0.04 0.02,0.07 0,-0.02 -0.01,-0.05 -0.02,-0.07 m 0.05,0.14 c 0.03,0.06 0.05,0.12 0.07,0.19 -0.02,-0.07 -0.04,-0.13 -0.07,-0.19 m 0.08,0.19 c 0.18,0.48 0.37,0.97 0.56,1.46 -0.19,-0.49 -0.38,-0.98 -0.56,-1.46 m 0.56,1.47 c 0.02,0.06 0.04,0.12 0.07,0.17 -0.03,-0.06 -0.05,-0.11 -0.07,-0.17 m 0.1,0.26 c 0.01,0.03 0.02,0.06 0.04,0.09 -0.02,-0.03 -0.03,-0.06 -0.04,-0.09 m 0.04,0.11 c 0.74,1.94 1.49,3.95 2.24,6.03 -0.75,-2.08 -1.5,-4.09 -2.24,-6.03 m 2.25,6.05 c 0.02,0.04 0.03,0.08 0.05,0.13 -0.02,-0.05 -0.04,-0.09 -0.05,-0.13 m 0.05,0.13 c 0.04,0.12 0.09,0.26 0.14,0.39 -0.05,-0.13 -0.1,-0.26 -0.14,-0.39 m 0.14,0.41 c 0.03,0.07 0.06,0.16 0.09,0.24 -0.03,-0.09 -0.06,-0.16 -0.09,-0.24 m 0.1,0.26 c 0.01,0.04 0.03,0.08 0.04,0.11 -0.01,-0.03 -0.03,-0.07 -0.04,-0.11 m 0.05,0.15 c 0.02,0.04 0.03,0.07 0.04,0.1 -0.01,-0.03 -0.02,-0.06 -0.04,-0.1 m 0.09,0.25 c 0.01,0.03 0.02,0.06 0.03,0.09 -0.01,-0.03 -0.02,-0.06 -0.03,-0.09 m 0.07,0.17 c 0.02,0.06 0.04,0.11 0.06,0.17 -0.02,-0.06 -0.04,-0.11 -0.06,-0.17 m 0.09,0.26 c 0.01,0.03 0.02,0.05 0.03,0.09 -0.01,-0.03 -0.02,-0.06 -0.03,-0.09 m 0.04,0.13 c 0.02,0.04 0.04,0.08 0.05,0.13 -0.01,-0.05 -0.03,-0.09 -0.05,-0.13 m 0.11,0.28 c 0,0.01 0,0.02 0,0.02 0,0 0,-0.01 0,-0.02 m 0.06,0.18 c 0.01,0.03 0.02,0.05 0.03,0.07 -0.01,-0.02 -0.02,-0.04 -0.03,-0.07 m 0.15,0.42 c 0,0.01 0.01,0.03 0.01,0.04 0,-0.02 -0.01,-0.03 -0.01,-0.04 m 0.07,0.2 c 0.01,0.02 0.02,0.05 0.02,0.06 0,-0.02 -0.01,-0.04 -0.02,-0.06 m 0.08,0.22 c 0,0.01 0.01,0.02 0.01,0.03 0,-0.01 -0.01,-0.02 -0.01,-0.03" /><path
         id="path250"
         style="fill:#9f8fcf;fill-opacity:1;fill-rule:nonzero;stroke:none"
         d="m 2395.2,1462.41 c 0.03,0.01 0.07,0.03 0.1,0.04 -0.03,-0.01 -0.07,-0.03 -0.1,-0.04 m 0.24,0.1 c 0.05,0.02 0.09,0.04 0.14,0.06 -0.05,-0.02 -0.09,-0.04 -0.14,-0.06 m 0.21,0.09 c 0.07,0.03 0.12,0.06 0.19,0.08 -0.06,-0.02 -0.13,-0.05 -0.19,-0.08 m 0.21,0.09 c 0.79,0.35 1.57,0.69 2.35,1.03 v 0 c -0.78,-0.34 -1.56,-0.68 -2.35,-1.03" /><path
         id="path252"
         style="fill:#514ba8;fill-opacity:1;fill-rule:nonzero;stroke:none"
         d="m 2391.96,1461.03 -7.69,10.98 c 22.76,13.43 44.06,26.38 48.41,30.3 10.05,9.04 6.11,115.02 18.01,175.58 0.03,-0.14 0.07,-0.28 0.1,-0.42 0.92,-5.06 2.62,-11.48 4.75,-18.53 6.03,-21.29 15.17,-47.99 24.19,-69.64 -6.5,-22.5 -13.04,-43.57 -19.08,-60.54 0,-0.01 -0.01,-0.02 -0.01,-0.03 -0.02,-0.05 -0.04,-0.1 -0.06,-0.16 0,-0.01 -0.01,-0.04 -0.02,-0.06 -0.02,-0.05 -0.04,-0.11 -0.06,-0.16 0,-0.01 -0.01,-0.03 -0.01,-0.04 -0.04,-0.12 -0.08,-0.23 -0.12,-0.35 -0.01,-0.02 -0.02,-0.04 -0.03,-0.07 -0.02,-0.05 -0.04,-0.1 -0.06,-0.16 0,0 0,-0.01 0,-0.02 -0.02,-0.05 -0.04,-0.1 -0.06,-0.15 -0.01,-0.05 -0.03,-0.09 -0.05,-0.13 0,-0.02 -0.01,-0.03 -0.01,-0.04 -0.01,-0.04 -0.02,-0.06 -0.03,-0.09 -0.01,-0.03 -0.02,-0.06 -0.03,-0.09 -0.02,-0.06 -0.04,-0.11 -0.06,-0.17 -0.01,-0.03 -0.02,-0.05 -0.04,-0.08 -0.01,-0.03 -0.02,-0.06 -0.03,-0.09 -0.01,-0.05 -0.03,-0.1 -0.05,-0.15 -0.01,-0.03 -0.02,-0.06 -0.04,-0.1 0,-0.01 0,-0.02 -0.01,-0.04 -0.01,-0.03 -0.03,-0.07 -0.04,-0.11 l -0.01,-0.02 c -0.03,-0.08 -0.06,-0.17 -0.09,-0.24 0,-0.01 0,-0.02 0,-0.02 -0.05,-0.13 -0.1,-0.27 -0.14,-0.39 v 0 c -0.02,-0.05 -0.03,-0.09 -0.05,-0.13 0,-0.01 -0.01,-0.02 -0.01,-0.02 -0.75,-2.08 -1.5,-4.09 -2.24,-6.03 0,-0.01 0,-0.01 0,-0.02 -0.02,-0.03 -0.03,-0.06 -0.04,-0.09 -0.01,-0.03 -0.02,-0.06 -0.03,-0.09 -0.03,-0.05 -0.05,-0.11 -0.07,-0.17 v -0.01 c -0.19,-0.49 -0.38,-0.98 -0.56,-1.46 h -0.01 c -0.02,-0.07 -0.04,-0.13 -0.07,-0.19 -0.01,-0.03 -0.02,-0.05 -0.03,-0.07 -0.01,-0.03 -0.01,-0.04 -0.02,-0.07 -0.01,-0.03 -0.03,-0.06 -0.04,-0.1 -0.01,-0.02 -0.01,-0.03 -0.02,-0.05 -0.02,-0.04 -0.03,-0.08 -0.05,-0.13 -0.01,-0.03 -0.02,-0.06 -0.04,-0.09 0,-0.02 -0.01,-0.05 -0.02,-0.07 -0.02,-0.04 -0.03,-0.08 -0.05,-0.11 -0.01,-0.04 -0.02,-0.07 -0.03,-0.1 -0.02,-0.03 -0.03,-0.06 -0.04,-0.09 -0.01,-0.02 -0.02,-0.04 -0.03,-0.07 0,-0.01 -0.01,-0.03 -0.02,-0.05 -0.01,-0.04 -0.03,-0.09 -0.05,-0.14 -0.01,-0.03 -0.02,-0.05 -0.04,-0.08 -0.01,-0.03 -0.02,-0.05 -0.03,-0.08 0,-0.02 -0.02,-0.05 -0.02,-0.07 -0.02,-0.05 -0.04,-0.09 -0.06,-0.14 -0.01,-0.02 -0.01,-0.04 -0.02,-0.06 -0.02,-0.04 -0.03,-0.07 -0.04,-0.11 -0.01,-0.01 -0.01,-0.02 -0.02,-0.03 -0.02,-0.05 -0.04,-0.1 -0.05,-0.15 -0.01,-0.02 -0.02,-0.03 -0.02,-0.05 -0.04,-0.1 -0.09,-0.2 -0.13,-0.31 0,-0.01 -0.01,-0.03 -0.01,-0.04 -0.05,-0.11 -0.09,-0.21 -0.13,-0.31 0,-0.01 0,-0.02 -0.01,-0.03 -4.32,-10.86 -8.27,-18.93 -11.62,-23.02 -0.01,0 -0.01,0 -0.01,0 -0.02,-0.02 -0.03,-0.05 -0.05,-0.07 v 0 0 c -0.03,-0.03 -0.06,-0.07 -0.09,-0.1 -0.01,-0.02 -0.02,-0.03 -0.04,-0.04 -0.01,-0.03 -0.03,-0.05 -0.05,-0.07 -0.02,-0.02 -0.03,-0.03 -0.04,-0.05 -0.02,-0.02 -0.04,-0.04 -0.05,-0.06 -0.02,-0.02 -0.03,-0.03 -0.05,-0.05 -0.01,-0.02 -0.03,-0.04 -0.05,-0.06 -0.01,-0.02 -0.03,-0.04 -0.04,-0.05 -0.02,-0.02 -0.03,-0.04 -0.05,-0.05 -0.01,-0.02 -0.03,-0.04 -0.05,-0.06 -0.01,-0.02 -0.03,-0.03 -0.04,-0.05 -0.02,-0.02 -0.04,-0.04 -0.05,-0.06 -0.02,-0.02 -0.03,-0.03 -0.04,-0.04 -0.02,-0.02 -0.04,-0.05 -0.06,-0.07 0,-0.01 -0.01,-0.01 -0.01,-0.02 -0.06,-0.06 -0.11,-0.12 -0.16,-0.18 -0.01,0 -0.01,0 -0.01,-0.01 -0.03,-0.02 -0.05,-0.05 -0.07,-0.08 -0.01,-0.01 -0.02,-0.01 -0.03,-0.02 -0.02,-0.03 -0.04,-0.05 -0.06,-0.08 -0.02,-0.01 -0.03,-0.02 -0.04,-0.03 -0.02,-0.03 -0.04,-0.05 -0.06,-0.08 -0.01,-0.01 -0.02,-0.02 -0.03,-0.03 -0.03,-0.02 -0.05,-0.05 -0.07,-0.07 -0.01,-0.01 -0.02,-0.02 -0.03,-0.03 -0.02,-0.03 -0.05,-0.05 -0.07,-0.08 -0.01,-0.01 -0.02,-0.01 -0.02,-0.02 -8.22,-8.82 -24.53,-17.94 -44.24,-26.64 -0.78,-0.34 -1.56,-0.68 -2.35,-1.03 0,0 -0.01,0 -0.02,-0.01 -0.07,-0.02 -0.12,-0.05 -0.19,-0.08 -0.02,-0.01 -0.05,-0.02 -0.07,-0.03 -0.05,-0.02 -0.09,-0.04 -0.14,-0.06 -0.05,-0.02 -0.09,-0.04 -0.14,-0.06 -0.03,-0.01 -0.07,-0.03 -0.1,-0.04 -1.07,-0.46 -2.15,-0.92 -3.24,-1.38" /><path
         id="path254"
         style="fill:#514ba8;fill-opacity:1;fill-rule:nonzero;stroke:none"
         d="m 2479.73,1589.3 c -9.02,21.65 -18.16,48.35 -24.19,69.64 8.7,-28.83 24.61,-68.19 24.61,-68.19 -0.14,-0.48 -0.28,-0.97 -0.42,-1.45 m -28.94,88.17 c -0.03,0.14 -0.07,0.28 -0.1,0.42 0.01,0.02 0.01,0.03 0.01,0.05 0.03,-0.16 0.06,-0.31 0.09,-0.47" /><path
         id="path256"
         style="fill:#e8775e;fill-opacity:1;fill-rule:nonzero;stroke:none"
         d="m 2568.34,1846.15 c -6.6,0 -27.95,2.94 -27.95,2.94 v 18.6 c 0.03,0 0.06,-0.01 0.09,-0.01 1.99,-0.44 37.59,-8.13 48.1,-8.13 0.7,0 1.29,0.03 1.75,0.11 0.45,-0.02 0.9,-0.04 1.35,-0.05 1.79,-1.32 -18.08,-12.93 -22.11,-13.41 -0.32,-0.04 -0.73,-0.05 -1.23,-0.05" /><path
         id="path258"
         style="fill:#e8775e;fill-opacity:1;fill-rule:nonzero;stroke:none"
         d="m 2591.68,1859.61 c -0.45,0.01 -0.9,0.03 -1.35,0.05 h 0.01 c 0.31,0.05 0.57,0.07 0.78,0.07 0.27,0 0.46,-0.04 0.56,-0.12 m -51.2,8.07 c -0.03,0 -0.06,0.01 -0.09,0.01 v 0.01 c 0,0 0.03,-0.01 0.09,-0.02" /><path
         id="path260"
         style="fill:#b3a0d7;fill-opacity:1;fill-rule:nonzero;stroke:none"
         d="m 2488.77,1322.76 -0.05,0.08 c 0.83,4.34 1.7,8.64 2.52,12.8 -0.73,-3.87 -1.56,-8.18 -2.47,-12.88 m 5.77,77.74 c 0.26,3.01 0.64,8.04 1.08,14.26 v 0 c -0.44,-6.31 -0.82,-11.25 -1.08,-14.26 m 279.9,251.32 c 2,55.12 0.68,113.4 -3.52,122.64 4.91,-10.8 7.19,-61.23 3.52,-122.64" /><path
         id="path262"
         style="fill:#9f8fcf;fill-opacity:1;fill-rule:nonzero;stroke:none"
         d="m 2493.54,1348.11 c 0.48,2.91 0.87,5.7 1.14,8.3 0.07,-0.03 0.14,-0.06 0.21,-0.09 -0.25,-1.83 -0.7,-4.6 -1.35,-8.21" /><path
         id="path264"
         style="fill:#2d318e;fill-opacity:1;fill-rule:nonzero;stroke:none"
         d="m 2492.7,1317.16 -3.93,5.6 c 0.91,4.7 1.74,9.01 2.47,12.88 0.86,4.33 1.66,8.52 2.3,12.47 0.65,3.61 1.1,6.38 1.35,8.21 0.11,-0.04 0.22,-0.09 0.33,-0.14 1.25,-2.01 9.78,-15.83 19.15,-33.18 -7.7,-2.13 -14.98,-4.1 -21.67,-5.84" /><path
         id="path266"
         style="fill:#2d318e;fill-opacity:1;fill-rule:nonzero;stroke:none"
         d="m 2514.37,1323 c -9.37,17.35 -17.9,31.17 -19.15,33.18 17.62,-7.48 55.36,-13.16 84.25,-14.38 -22.54,-6.72 -45.21,-13.3 -65.1,-18.8" /><path
         id="path268"
         style="fill:#514ba8;fill-opacity:1;fill-rule:nonzero;stroke:none"
         d="m 2579.47,1341.8 c -28.89,1.22 -66.63,6.9 -84.25,14.38 -0.11,0.05 -0.22,0.1 -0.33,0.14 -0.07,0.03 -0.14,0.06 -0.21,0.09 0.24,2.38 0.38,4.62 0.38,6.68 -4.82,17.88 -2.25,17.76 -0.6,36.5 0.03,0.28 0.05,0.59 0.08,0.91 0.26,3.01 0.64,7.95 1.08,14.26 15.36,10.65 29.14,20.03 38.7,26.19 l 23.37,-32.23 19.4,48.76 c 0,0 0.12,2.14 0.29,6.17 19.25,9.39 36.02,17.26 36.02,17.26 0,0 43.02,151.14 64.58,208.57 l 90.54,88.56 c 0.99,-1.18 1.84,-2.36 2.4,-3.58 v 0 c 4.2,-9.24 5.52,-67.52 3.52,-122.64 -0.01,-0.06 -0.01,-0.13 -0.02,-0.19 -23.93,-100.96 -65.27,-267.22 -73.24,-271.55 -3.4,-1.84 -62.07,-20.51 -121.71,-38.28" /><path
         id="path270"
         style="fill:#1e204a;fill-opacity:1;fill-rule:nonzero;stroke:none"
         d="m 2557.69,1408.72 -23.37,32.23 c 4.86,3.13 8.64,5.43 10.97,6.65 9.81,5.09 21.34,10.81 32.09,16.05 -0.17,-4.03 -0.29,-6.17 -0.29,-6.17 l -19.4,-48.76" /><path
         id="path272"
         style="fill:#fabc43;fill-opacity:1;fill-rule:nonzero;stroke:none"
         d="m 1922.94,1984.66 163.28,-86.97 531.74,-759.43 4.91,-7.02 49.5,-72.63 -130.02,-90.981 -52.79,77.351 -10.64,15.12 -522.72,746.61 -33.26,177.95" /><path
         id="path274"
         style="fill:#f35f99;fill-opacity:1;fill-rule:nonzero;stroke:none"
         d="m 2644.44,1098.48 27.93,-39.88 -130.03,-90.971 -27.93,39.871 130.03,90.98" /><path
         id="path276"
         style="fill:#fde5bc;fill-opacity:1;fill-rule:nonzero;stroke:none"
         d="m 2616.54,1138.37 27.9,-39.89 -130.03,-90.98 -27.89,39.89 130.02,90.98" /><path
         id="path278"
         style="fill:#fde5bc;fill-opacity:1;fill-rule:nonzero;stroke:none"
         d="m 1956.2,1806.71 130.02,90.98 -163.28,86.97 33.26,-177.95" /><path
         id="path280"
         style="fill:#f9a818;fill-opacity:1;fill-rule:nonzero;stroke:none"
         d="m 1934.84,1920.98 44.56,33.6 -56.46,30.08 11.9,-63.68" /><path
         id="path282"
         style="fill:#f36917;fill-opacity:1;fill-rule:nonzero;stroke:none"
         d="m 1934.84,1920.98 -11.9,63.68 47.56,-36.79 -35.66,-26.89" /><path
         id="path284"
         style="fill:#f6861b;fill-opacity:1;fill-rule:nonzero;stroke:none"
         d="m 2672.37,1058.61 -27.93,39.87 -27.9,39.89 -35.09,-24.55 -521.92,765.19 26.69,18.68 586.15,-839.09 v 0.01" /><path
         id="path286"
         style="fill:#f14b34;fill-opacity:1;fill-rule:nonzero;stroke:none"
         d="m 2636.32,1033.38 -27.43,40.22 35.55,24.88 27.93,-39.87 v -0.01 l -36.05,-25.22" /><path
         id="path288"
         style="fill:#f8a531;fill-opacity:1;fill-rule:nonzero;stroke:none"
         d="m 2608.89,1073.6 -27.44,40.22 35.09,24.55 27.9,-39.89 -35.55,-24.88" /><path
         id="path290"
         style="fill:#f8a531;fill-opacity:1;fill-rule:nonzero;stroke:none"
         d="m 2059.53,1879.01 v 0 l -89.03,68.86 8.9,6.71 -56.46,30.08 163.28,-86.97 -26.69,-18.68" /><path
         id="path292"
         style="fill:#f14c1c;fill-opacity:1;fill-rule:nonzero;stroke:none"
         d="m 1970.5,1947.87 -47.56,36.79 56.46,-30.08 -8.9,-6.71" /><path
         id="path294"
         style="fill:#ee8d73;fill-opacity:1;fill-rule:nonzero;stroke:none"
         d="m 2412.62,1343.75 c 0,0 -19.46,-6.07 -29.51,-8.98 -6.56,-1.9 -37.69,1.43 -56.01,-2.76 -8.83,-2.02 -18.02,-5.14 -23.74,-12.17 -5.71,-7.04 -6.08,-19.03 1.4,-24.16 2.12,-1.45 5.01,-2.7 5.26,-5.27 0.13,-1.3 -0.51,-2.54 -0.9,-3.79 -1.2,-3.84 0.17,-8.35 3.31,-10.87 3.14,-2.52 7.84,-2.88 11.33,-0.87 0.06,-8.34 7.44,-15.95 15.78,-16.28 -0.32,4.59 1.13,9.63 4.93,12.23 3.66,2.5 8.46,2.2 12.88,2.65 7.77,0.8 15.23,4.35 20.76,9.88 3.94,3.93 6.86,8.77 10.45,13.03 7.39,8.73 17.72,14.92 28.9,17.31" /><path
         id="path296"
         style="fill:#6658b1;fill-opacity:1;fill-rule:nonzero;stroke:none"
         d="m 2677.49,1699.15 c -8.38,-23.96 -52.82,-235.03 -52.82,-235.03 0,0 -43.48,-10.92 -70.83,-25.12 -21.19,-10.99 -168.96,-102.77 -168.96,-102.77 l 14.7,-34.6 c 0,0 263.03,93.21 274.56,99.47 11.52,6.26 117.14,272.76 117.14,320.32 -0.01,27.99 -22.68,56.69 -22.68,56.69" /><path
         id="path298"
         style="fill:#ee8d73;fill-opacity:1;fill-rule:nonzero;stroke:none"
         d="m 2229.35,1416.22 c -8.55,-0.8 -17.12,5.91 -18.4,14.4 -0.26,1.7 -0.28,3.5 -1.14,4.99 -1.51,2.61 -4.9,3.23 -7.76,4.17 -10.99,3.61 -17.67,15.04 -19.99,26.37 -1.23,6.02 -1.5,12.4 0.53,18.21 2.02,5.8 6.63,10.92 12.6,12.42 1.17,0.29 2.45,0.44 3.56,-0.02 1.12,-0.47 1.92,-1.48 2.63,-2.46 3.28,-4.62 5.69,-9.87 7.05,-15.36 1,-4 1.68,-8.52 4.92,-11.06 2.19,-1.71 5.1,-2.13 7.55,-3.43 4.93,-2.6 7.26,-8.3 8.94,-13.61 2.56,-8.09 -1.77,-26.23 -0.49,-34.62" /><path
         id="path300"
         style="fill:#282251;fill-opacity:1;fill-rule:nonzero;stroke:none"
         d="m 3046.31,1971.12 h 250.16 c 5.59,0 10.48,-3.74 11.96,-9.12 l 39.3,-143.69 76.08,-39.94 h -275.87 l -76.08,39.94 -37.5,137.15 c -2.16,7.89 3.77,15.66 11.95,15.66" /><path
         id="path302"
         style="fill:#363495;fill-opacity:1;fill-rule:nonzero;stroke:none"
         d="m 3075.64,1821.29 h 270.5 l -38.53,140.89 c -1.45,5.28 -6.25,8.94 -11.73,8.94 h -245.3 c -8.01,0 -13.83,-7.62 -11.72,-15.36 l 36.78,-134.47" /><path
         id="path304"
         style="fill:#b3a8db;fill-opacity:1;fill-rule:nonzero;stroke:none"
         d="m 3045.14,1957.48 4.77,-17.22 v -0.1 l 28.2,-102.96 c 1.45,-5.55 6.56,-9.33 12.22,-9.33 h 230.57 c 8.32,0 14.43,8 12.22,16.1 l -1.57,5.56 -5.21,19.1 -5.44,19.99 -13.22,48.42 -4.99,18.11 c -1.45,5.55 -6.57,9.44 -12.23,9.44 h -239.88 c -1.78,0 -3.33,-0.78 -4.45,-2.23 -1.11,-1.44 -1.44,-3.22 -0.99,-4.88" /><path
         id="path306"
         style="fill:#363495;fill-opacity:1;fill-rule:nonzero;stroke:none"
         d="m 3150.23,1782.13 h 270.5 l -74.59,39.16 h -270.5 l 74.59,-39.16" /><path
         id="path308"
         style="fill:#e4ddf2;fill-opacity:1;fill-rule:nonzero;stroke:none"
         d="m 3515.58,770.621 c -117.43,0 -212.62,8.391 -212.62,18.738 0,10.352 95.19,18.743 212.62,18.743 117.44,0 212.63,-8.391 212.63,-18.743 0,-10.347 -95.19,-18.738 -212.63,-18.738" /><path
         id="path310"
         style="fill:#ee8d73;fill-opacity:1;fill-rule:nonzero;stroke:none"
         d="m 3582.68,871.102 c 0,0 0.86,-35.731 1.55,-44.84 0.67,-9.114 29.68,-9.793 33.06,-5.063 3.36,4.723 5.05,46.551 5.05,46.551" /><path
         id="path312"
         style="fill:#343434;fill-opacity:1;fill-rule:nonzero;stroke:none"
         d="m 3624.95,813.16 c 0,-9.488 -2.65,-24.961 -2.65,-24.961 h -33.42 l -1.65,5.582 c 0,0 -10.83,-5.582 -19.36,-5.582 h -28.21 c -20.66,0 -32.38,2.633 -32.91,6.262 -2.18,15.199 22.5,14.5 28.92,14.5 18.45,0 38.42,8.648 42.78,18.008 3.15,6.801 1.76,8.523 5.57,7.242 0,0 3.44,-0.731 5.74,-4.941 3.51,-6.461 10.19,-10.778 17.43,-9.508 4.14,0.73 8.3,2.308 11.3,5.449 0,0 6.46,-2.539 6.46,-12.051" /><path
         id="path314"
         style="fill:#ee8d73;fill-opacity:1;fill-rule:nonzero;stroke:none"
         d="m 3465.35,880.73 c 0,0 6.18,-24.48 10.19,-32.679 3.99,-8.219 31.19,1.898 32.58,7.539 1.38,5.629 -12.54,45.109 -12.54,45.109" /><path
         id="path316"
         style="fill:#343434;fill-opacity:1;fill-rule:nonzero;stroke:none"
         d="m 3518.21,850.969 c 3.52,-8.828 8.73,-25.918 8.73,-25.918 l -25.34,-15.11 -4.97,3.75 c 0,0 -5.59,-9.07 -13.33,-13.929 -5.75,-3.614 -18.48,-8.891 -25.09,-10.391 -23.15,-5.301 -41.03,-2.742 -42.87,0.438 -7.64,13.312 23.04,20.621 29.01,23 17.13,6.839 24.98,23.441 25.55,33.75 0.42,7.48 -1.51,8.57 2.5,8.8 0,0 3.47,0.59 7.16,-2.468 5.65,-4.7 13.46,-6.25 19.72,-2.379 3.57,2.207 6.84,5.207 8.47,9.25 0,0 6.95,0.027 10.46,-8.793" /><path
         id="path318"
         style="fill:#fabc43;fill-opacity:1;fill-rule:nonzero;stroke:none"
         d="m 3643.86,1692.44 c 12.01,8.87 25.1,18.83 37.55,29.21 28.35,23.81 53.67,49.68 56.81,68.51 6.93,42.19 1.52,167.61 -1.84,226.8 -0.11,3.58 -0.33,6.93 -0.54,10.07 -3.36,55.94 -33.44,80.72 -48.48,89.82 -7.68,-72.73 -25,-236.88 -26.4,-245.32 -1.84,-10.83 -17.1,-179.09 -17.1,-179.09" /><path
         id="path320"
         style="fill:#f79824;fill-opacity:1;fill-rule:nonzero;stroke:none"
         d="m 3673.25,1715 c -0.98,11.93 -0.9,23.9 0.66,35.87 1.95,14.61 4.65,32.03 8.43,51.94 12.56,66.67 36.76,167.33 41.77,231.14 h 0.01 c 0,0 14.46,-18.73 -8.53,-120.64 -19.38,-80.83 -33.15,-145.41 -34.21,-191.66 -2.69,-2.24 -5.4,-4.46 -8.13,-6.65" /><path
         id="path322"
         style="fill:#363495;fill-opacity:1;fill-rule:nonzero;stroke:none"
         d="m 3532.77,1309.62 c 2.64,-51.67 7.06,-105.02 14.36,-142.15 6.14,-31.53 105.26,-37.31 92.52,-13.02 -18.39,35.29 13.68,145.91 29.44,334.54 2.28,28.55 15.11,31.84 23.62,90.56 8.41,58.82 -23.91,109.81 -23.91,109.81 l -137.56,12.77 -1.77,-171.33 -0.52,-57.93 c 0,0 -0.32,-79.47 3.82,-163.25" /><path
         id="path324"
         style="fill:#363495;fill-opacity:1;fill-rule:nonzero;stroke:none"
         d="m 3627.52,1176.48 c 0,0 26.9,-32.96 23.15,-93.42 -3.75,-60.46 -24.79,-240.912 -24.79,-240.912 0,0 -31.56,-4.66 -47.83,1.352 0,0 -34.04,334.65 -34.17,372.66 -0.14,38.01 83.64,-39.68 83.64,-39.68" /><path
         id="path326"
         style="fill:#2b2d7b;fill-opacity:1;fill-rule:nonzero;stroke:none"
         d="m 3532.77,1309.62 v 0 c -1.51,30.51 -2.42,60.44 -2.98,86.17 15.82,35.06 28.96,64.05 36.48,75.32 19.44,29.16 85.4,56.21 64.02,175.33 2.05,1.7 3.24,2.68 3.24,2.68 0,0 47.98,-94.69 -21.8,-167.91 0,0 -19.26,-18.34 -39,-60.4 -14.14,-30.09 -31.27,-83.32 -39.96,-111.19" /><path
         id="path328"
         style="fill:#363495;fill-opacity:1;fill-rule:nonzero;stroke:none"
         d="m 3369.7,1332.17 c 0,0 -31.18,-102.64 -26.23,-134.81 4.94,-32.17 118.99,-333.13 118.99,-333.13 0,0 21.01,-0.3 45.75,11.329 0,0 -2.46,132.491 -24.82,215.391 -22.37,82.9 -48.36,133.63 -70.64,141.05 -22.27,7.43 -36.86,82.92 -43.05,100.17" /><path
         id="path330"
         style="fill:#363495;fill-opacity:1;fill-rule:nonzero;stroke:none"
         d="m 3470.54,1271.21 c 0,0 -33.84,-53.87 -13.02,-102.22 20.81,-48.35 -34.86,-40.31 -34.86,-40.31 0,0 -27.85,81.06 -21.66,91.57 6.19,10.52 29.08,45.79 36.5,47.64 7.42,1.86 33.04,3.32 33.04,3.32" /><path
         id="path332"
         style="fill:#363495;fill-opacity:1;fill-rule:nonzero;stroke:none"
         d="m 3436.42,1699.42 c 0,0 -72.37,-335.01 -81.82,-425.27 -4.01,-38.27 36.22,-101.5 73.34,-66.89 44.32,41.31 116.05,230.44 138.33,263.85 22.27,33.41 105.62,64.04 48.7,233.56 l -178.55,-5.25" /><path
         id="path334"
         style="fill:#ee8d73;fill-opacity:1;fill-rule:nonzero;stroke:none"
         d="m 3615.07,2149.39 c 0,0 -9.9,33.53 -5.58,58.29 4.34,24.74 19.18,69.28 13.62,102.69 -5.57,33.41 -47.64,61.25 -92.18,56.92 -44.55,-4.33 -57.54,-47.02 -64.96,-71.76 -7.43,-24.75 -6.19,-62.49 -4.34,-82.91 1.86,-20.41 12.99,-36.5 20.42,-40.83 7.42,-4.33 35.35,1.37 40.25,-3.95 4.92,-5.33 8.63,-36.88 8.63,-36.88" /><path
         id="path336"
         style="fill:#ffffff;fill-opacity:1;fill-rule:nonzero;stroke:none"
         d="m 3636.1,2122.91 c 0,0 -2.48,19.56 -9.9,26.48 -7.42,6.93 -56.91,6.93 -71.77,5.07 -14.85,-1.85 -51.45,-18.92 -56.3,-22.54 -4.84,-3.6 4.71,-22.39 4.71,-22.39 l 133.26,13.38" /><path
         id="path338"
         style="fill:#282251;fill-opacity:1;fill-rule:nonzero;stroke:none"
         d="m 3613.21,2191.58 c 0,0 -61.87,-5.25 -73.63,0 -11.75,5.27 -28.76,16.71 -30.31,37.75 -1.55,21.03 2.78,27.53 -5.26,39.28 -8.04,11.76 -15.15,7.74 -16.39,-3.4 -1.24,-11.14 -1.73,-31.25 -4.64,-32.73 -3.95,-1.99 -8.63,12.17 -7.12,33.65 1.32,18.65 3.41,33.11 8.97,45.48 5.57,12.37 8.59,11.68 13.62,13.92 -5.42,2.63 -11.27,2.94 -21.98,19.65 -12.38,19.33 -5.56,49.46 27.23,49.33 57.29,-0.21 118.17,-11.44 119.41,-53.83 0,0 20.1,3.1 20.72,-35.56 0.62,-38.67 -24.12,-85.38 -25.98,-97.44 -1.85,-12.07 1.54,-13.31 -4.64,-16.1" /><path
         id="path340"
         style="fill:#fabc43;fill-opacity:1;fill-rule:nonzero;stroke:none"
         d="m 3441.25,1737.02 c -2.27,-19.36 -19.26,-49.34 -7.68,-53.56 4.65,-1.62 23.59,-0.54 46.75,1.4 h 0.65 l 1.08,0.11 c 20.56,1.73 44.04,4 63.74,5.52 38.25,1.63 67.4,-1.24 88.15,-4.11 21.93,-3.03 34.5,-6.07 38.56,-3.79 3.79,2.27 3.9,9.09 2.7,16.12 -2.7,17.32 -3.56,34.74 -1.29,52.16 1.95,14.61 4.65,32.03 8.43,51.94 12.99,68.94 38.42,174.22 42.21,237.53 6.06,99.23 -100.2,89.82 -100.2,89.82 -135.27,8.43 -198.78,-30.52 -206.15,-88.64 -0.53,-4.11 -0.86,-8.54 -1.19,-13.19 -3.46,-59.95 14.83,-156.69 23.49,-228.97 2.38,-19.92 1.94,-42.96 0.75,-62.34" /><path
         id="path342"
         style="fill:#ac8c8d;fill-opacity:1;fill-rule:nonzero;stroke:none"
         d="m 3425.35,1909.72 c -5.05,38.05 -9.04,75.24 -8.77,105.41 0.01,0 0.01,0 0.01,0 -0.25,-30.16 3.72,-67.36 8.76,-105.41" /><path
         id="path344"
         style="fill:#f79824;fill-opacity:1;fill-rule:nonzero;stroke:none"
         d="m 3442.83,1682.67 c -4.47,0 -7.68,0.24 -9.26,0.79 -2.89,1.05 -4,3.72 -4,7.42 0,11.12 9.98,31.62 11.68,46.14 0.57,9.24 0.96,19.3 0.97,29.47 0,11.16 -0.48,22.44 -1.72,32.87 v 0 c -4,33.56 -10.11,72.39 -15.15,110.36 -5.04,38.05 -9.01,75.25 -8.76,105.41 26.18,6.06 35.49,15.14 38.73,21.64 -0.76,-5.96 -5.95,-50.54 0.11,-107.56 6.39,-61.36 17.21,-126.29 18.18,-155.07 0.86,-28.9 -8.77,-53.24 -13.41,-64.06 -4.46,-10.24 -1.1,-25.32 17.43,-25.32 0.87,0 1.76,0.04 2.69,0.1 -15.32,-1.28 -28.78,-2.19 -37.49,-2.19" /><path
         id="path346"
         style="fill:#ee8d73;fill-opacity:1;fill-rule:nonzero;stroke:none"
         d="m 3096.17,1774.03 c -3.1,1.68 0.18,5.23 3.3,5.21 0.42,0 1.34,-0.14 2.56,-0.35 -5.51,1.8 -9.98,3.34 -10.99,3.88 -2.95,1.6 -0.23,5 2.73,5.34 -2.19,0.8 -3.83,1.43 -4.49,1.77 -3.81,1.98 -0.44,5.52 3.26,5.27 0.83,-0.06 3.03,-0.57 5.87,-1.29 -1.45,0.52 -2.55,0.94 -3.02,1.2 -3.1,1.68 -0.74,5.08 2.38,5.06 1.02,0 2.7,-0.47 6.76,-1.45 3.47,-0.84 7.35,-1.34 10.81,-2.23 4.83,-1.26 10.04,-1.75 10.12,-1.76 12,3.85 17.85,10.18 17.85,10.18 l -11.81,6.57 c 0,0 -0.7,10.41 32.23,-2.09 4.89,-1.86 9.08,-8.59 12.15,-9.4 3.07,-0.8 12.13,-0.7 12.13,-0.7 l -0.03,-28.82 c 0,0 -16.06,2.81 -20.82,0.93 -4.72,-2.03 -23.89,-8.12 -27.17,-8.4 -1.35,-0.14 -7.07,0.48 -13.73,1.38 l -9.88,2.06 -9.26,2.93 c 0,0 -9.93,4.17 -10.95,4.71" /><path
         id="path348"
         style="fill:#fabc43;fill-opacity:1;fill-rule:nonzero;stroke:none"
         d="m 3180.7,1768.41 c 0,0 51.51,-11.69 93.38,-19.49 32.38,-5.84 66.72,-10.63 100.56,-8.17 l 0.78,-0.1 c 20.95,0.79 48.7,6.95 55.19,16.32 6.47,9.38 19.07,46.45 19.07,46.45 10.6,21.84 26.6,81.17 40.11,131.69 l 0.6,2.32 c 6.27,23.53 12.05,45.03 16.37,59.65 2.14,6.85 1.87,14.1 -0.51,20.48 -1.95,5.74 -5.7,10.81 -11,14.42 l -0.16,0.18 c -14.15,9.64 -9.82,23.38 -24.4,13.96 l -10.14,1.81 c -9.42,23.02 -3.09,53.99 -3.09,53.99 0,0 -40.88,-17.93 -55.77,-102.17 -3.31,-18.7 -23.8,-150.54 -25.24,-166.7 -0.06,-1.27 -0.07,-2.43 -0.19,-3.56 0,0 -0.55,-1.88 -1.07,-4.83 -0.13,-0.88 -0.15,-2.04 -0.27,-3.17 -12.15,0.37 -25.67,-0.57 -39.9,-3.8 -46.6,-10.62 -151.02,-15.96 -151.02,-15.96 l -2.74,-26.06 -0.03,-0.34 0.06,-0.13 -0.59,-6.79" /><path
         id="path350"
         style="fill:#bdb1df;fill-opacity:1;fill-rule:nonzero;stroke:none"
         d="m 3320.9,1888.62 -78.75,75.97 h 36.99 l 28.54,-27.55 13.22,-48.42" /><path
         id="path352"
         style="fill:#bdb1df;fill-opacity:1;fill-rule:nonzero;stroke:none"
         d="m 3331.55,1849.53 -119.27,115.06 h 14.55 l 99.51,-95.96 5.21,-19.1" /><path
         id="path354"
         style="fill:#bdb1df;fill-opacity:1;fill-rule:nonzero;stroke:none"
         d="m 3245.49,1827.87 h -14.45 l -141.82,136.72 h 14.55 l 141.72,-136.72" /><path
         id="path356"
         style="fill:#bdb1df;fill-opacity:1;fill-rule:nonzero;stroke:none"
         d="m 3206.28,1827.87 h -39.98 l -116.39,112.29 v 0.1 l -4.77,17.22 c -0.13,0.47 -0.19,0.94 -0.2,1.42 0,1.21 0.39,2.42 1.19,3.46 1.12,1.45 2.67,2.23 4.45,2.23 h 13.99 l 141.71,-136.72" /><path
         id="path358"
         style="fill:#b5a2d8;fill-opacity:1;fill-rule:nonzero;stroke:none"
         d="m 3692.35,2399.45 c -6.05,16.23 -6.89,34.54 -1.07,52.29 13.62,41.55 58.36,64.19 99.91,50.56 41.55,-13.63 64.19,-58.36 50.57,-99.92 -13.63,-41.55 -58.36,-64.19 -99.91,-50.56 -15.43,5.05 -28.24,14.41 -37.56,26.3 l -34.22,-5.99 22.28,27.32" /><path
         id="path360"
         style="fill:#ffffff;fill-opacity:1;fill-rule:nonzero;stroke:none"
         d="m 3799.24,2449.68 c -7.85,7.24 -20.08,6.75 -27.32,-1.11 l -4.77,-5.17 -5.22,4.83 c -7.82,7.28 -20.05,6.81 -27.32,-1.02 -7.26,-7.84 -6.8,-20.06 1.03,-27.33 l 19.36,-17.95 0.11,-0.12 c 3.09,-2.85 6.85,-4.5 10.73,-4.97 5.97,-0.74 12.2,1.31 16.59,6.08 l 17.92,19.43 c 7.24,7.86 6.74,20.09 -1.11,27.33" /><path
         id="path362"
         style="fill:#e4ddf2;fill-opacity:1;fill-rule:nonzero;stroke:none"
         d="m 1192.55,783.32 c -192.644,0 -348.808,10.692 -348.808,23.879 0,13.192 156.164,23.883 348.808,23.883 192.64,0 348.81,-10.691 348.81,-23.883 0,-13.187 -156.17,-23.879 -348.81,-23.879" /><path
         id="path364"
         style="fill:#b5a2d8;fill-opacity:1;fill-rule:nonzero;stroke:none"
         d="m 920.137,2498.17 c 10.816,13.53 17.312,30.67 17.312,49.34 0,43.73 -35.445,79.18 -79.179,79.18 -43.735,0 -79.184,-35.45 -79.184,-79.18 0,-43.73 35.449,-79.18 79.184,-79.18 16.234,0 31.308,4.9 43.875,13.28 l 30.648,-16.36 -12.656,32.92" /><path
         id="path366"
         style="fill:#ffffff;fill-opacity:1;fill-rule:nonzero;stroke:none"
         d="m 824.879,2569.14 c 7.641,7.48 19.871,7.34 27.34,-0.29 l 4.926,-5.03 5.066,4.99 c 7.609,7.5 19.852,7.4 27.344,-0.21 7.492,-7.6 7.398,-19.85 -0.215,-27.34 l -18.809,-18.52 -0.101,-0.13 c -3.004,-2.94 -6.715,-4.69 -10.571,-5.29 -5.953,-0.91 -12.238,0.96 -16.773,5.58 l -18.496,18.89 c -7.473,7.63 -7.344,19.88 0.289,27.35" /><path
         id="path368"
         style="fill:#282251;fill-opacity:1;fill-rule:nonzero;stroke:none"
         d="m 987.117,2072.53 -28.074,-109.15 c 0,0 105.287,-80.59 146.247,-46.73 40.97,33.87 -1.11,138.42 -1.11,138.42 l -14.6,14.59 -102.463,2.87" /><path
         id="path370"
         style="fill:#282251;fill-opacity:1;fill-rule:nonzero;stroke:none"
         d="m 1182.67,2433.75 c 0,0 29.79,-35.29 20.18,-107.17 -3.42,-21.05 24.25,-50.52 42.66,-65.42 18.42,-14.9 35.39,-50.24 20.73,-83.39 -14.66,-33.13 -20.66,-36.38 -9,-66.58 22.3,-57.74 8.99,-164.15 -73.88,-155.59 -82.86,8.55 -89.82,293.17 -89.82,293.17 l 5.5,94.76 83.63,90.22" /><path
         id="path372"
         style="fill:#ee8d73;fill-opacity:1;fill-rule:nonzero;stroke:none"
         d="m 1154.91,2141.64 c 0,0 30.15,-4.45 68.23,-8.75 57.29,-6.58 132.51,-12.75 151.61,-3.29 31.68,15.93 135.81,105.29 135.81,105.29 l 16.34,10.58 c 2.78,1.64 5.78,2.64 8.99,3 3.47,0.32 9.28,1.07 17.06,3.07 3.93,1.08 7.67,2.68 10.92,4.72 l 1.78,1.07 0.5,0.29 c 7.24,4.68 12.81,10.46 17.48,14.27 7.21,5.86 -3.54,9.54 -15.7,3.57 -12.1,-5.82 -4.39,-4.68 -12.1,-4.39 -7.6,0.32 0.5,11.7 7.52,19.88 6.49,7.63 5.61,7.82 12.02,16.74 6.35,8.78 12.38,15.67 15.84,21.34 2.35,4.01 3.39,9.1 -1.18,7.83 -4.75,-1.48 -24.94,-21.19 -30.01,-24.54 -2.05,-1.3 -4.47,-1.1 -7.55,-0.89 -4.58,0.3 -10.63,0.6 -19.1,-4.08 -14.17,-7.82 -19.72,-30.74 -24.18,-38.05 -4.46,-7.32 -148.56,-91.71 -166.44,-90.89 -17.92,0.92 -153.26,33.19 -195.19,30.86 -22.66,-1.26 7.35,-67.63 7.35,-67.63" /><path
         id="path374"
         style="fill:#e8775e;fill-opacity:1;fill-rule:nonzero;stroke:none"
         d="m 1334.42,2124.75 c -16.2,0 -35.37,1.03 -55.06,2.59 -0.49,4.17 -0.72,8.87 -0.76,13.85 19.35,-2.7 40.26,-5.12 53.36,-5.12 0.05,0 0.11,0 0.17,0 0.12,0 0.24,0 0.36,0 29.51,0 42.03,7.17 75,28.01 33.18,21.08 106.42,80.73 116.98,86.16 9.81,5.19 29.8,1.27 39.4,6.02 -3.25,-2.04 -6.99,-3.64 -10.92,-4.72 -7.78,-2 -13.59,-2.75 -17.06,-3.07 -3.21,-0.36 -6.21,-1.36 -8.99,-3 l -16.34,-10.58 c 0,0 -13.17,-11.3 -31.56,-26.58 -33.34,-27.69 -83.84,-68.45 -104.25,-78.71 -7.05,-3.49 -21.73,-4.85 -40.33,-4.85" /><path
         id="path376"
         style="fill:#fbc589;fill-opacity:1;fill-rule:nonzero;stroke:none"
         d="m 1196.46,915.75 c 0,0 5.62,-29.559 4.48,-52.949 -3.43,-16.153 -0.56,-21.012 -0.56,-21.012 l 61.73,3.52 c 0,0 -26.84,14.14 -23.15,77.613 3.7,63.476 -42.5,-7.172 -42.5,-7.172" /><path
         id="path378"
         style="fill:#343434;fill-opacity:1;fill-rule:nonzero;stroke:none"
         d="m 1200.04,857.91 c 0,0 26.5,-10.68 53.17,-3.949 30.71,-15.242 52.47,-21.512 80.67,-25.879 28.2,-4.391 22.53,-27.531 -25.74,-22.941 -48.27,4.578 -82.08,3.3 -92.85,2.531 -10.78,-0.781 -28.01,-1.723 -28.52,5.82 -0.5,7.547 4.6,47.149 13.27,44.418" /><path
         id="path380"
         style="fill:#fbc589;fill-opacity:1;fill-rule:nonzero;stroke:none"
         d="m 1007.4,921.051 c 0,0 5.62,-29.551 4.49,-52.93 -3.43,-16.172 -0.56,-21.019 -0.56,-21.019 l 61.73,3.519 c 0,0 -26.85,14.141 -23.15,77.609 3.69,63.469 -42.51,-7.179 -42.51,-7.179" /><path
         id="path382"
         style="fill:#343434;fill-opacity:1;fill-rule:nonzero;stroke:none"
         d="m 1010.99,863.211 c 0,0 26.5,-10.68 53.17,-3.93 30.71,-15.25 52.47,-21.531 80.66,-25.902 28.2,-4.379 22.54,-27.52 -25.73,-22.938 -48.27,4.579 -82.08,3.309 -92.85,2.539 -10.78,-0.769 -28.017,-1.73 -28.521,5.821 -0.508,7.539 4.601,47.148 13.271,44.41" /><path
         id="path384"
         style="fill:#2d308a;fill-opacity:1;fill-rule:nonzero;stroke:none"
         d="m 1245.21,1801.11 c 0,0 27.98,-416.32 28.81,-470.45 0.84,-54.12 0.31,-72.92 -2.97,-105.76 -3.27,-32.83 9.22,-310.63 9.22,-310.63 0,0 -92.92,-21.5 -115.82,0.582 0,0 12.32,302.158 2.02,354.198 -10.3,52.03 -48.89,315.33 -48.89,315.33 l 60.5,266.45 67.13,-49.72" /><path
         id="path386"
         style="fill:#363495;fill-opacity:1;fill-rule:nonzero;stroke:none"
         d="m 1031.09,1306.91 c 11.58,77.3 3.19,392.13 5.75,458.7 2.56,66.55 189.01,27.43 189.01,27.43 0,0 -69.71,-388.5 -78.35,-444.71 -8.63,-56.21 -18.49,-72.39 -23.54,-126.36 -5.04,-53.95 -38.02,-307.06 -38.02,-307.06 0,0 -103.627,-14.41 -110.866,5.309 -13.496,100.341 56.016,386.691 56.016,386.691" /><path
         id="path388"
         style="fill:#fab84b;fill-opacity:1;fill-rule:nonzero;stroke:none"
         d="m 1206.26,2073.49 c -2.14,-5.15 2.35,-41.09 9.18,-86.5 0.25,-1.91 0.6,-3.82 0.84,-5.73 8.44,-55.96 20.11,-124.71 27.08,-168.42 0.35,-2.01 0.6,-3.82 0.95,-5.63 2.12,-13.57 3.82,-24.32 4.64,-30.84 0,0 -123.91,26.58 -223.92,-15.33 0,0 7.95,62.31 29.79,120.42 0.65,1.78 1.4,3.46 2.04,5.14 4.21,10.78 8.91,21.46 14.19,31.31 l 0.85,1.68 c 0.63,1.39 1.27,2.67 1.71,4.15 l 0.75,1.48 c 6.26,16.73 3.57,38.42 -3.98,61.65 -7,21.5 -18.26,44.32 -30.47,65.57 -7.25,12.61 -14.91,24.73 -22.11,35.64 v 0.09 c -20.831,31.11 -38.812,53.41 -38.812,53.41 0,0 -12.258,40.86 12.356,76.59 l 0.203,0.19 c 2.816,4.23 6.234,8.33 10.143,12.23 10.61,10.6 40.1,24.18 64.14,32.2 6.15,2.03 12,3.77 17.04,4.93 4.03,0.99 7.55,1.59 10.45,1.81 14.04,1.1 24.53,0.51 33.18,-1.34 26.04,-5.83 35.17,-22.89 74.06,-34.59 l 83.92,-25.16 c 0,0 -11.29,-71.01 -2.59,-92.37 l -58.68,1.65 c 0,0 -11.15,-30.3 -16.95,-44.23" /><path
         id="path390"
         style="fill:#eec681;fill-opacity:1;fill-rule:nonzero;stroke:none"
         d="m 1028.54,2071.37 h -0.01 c -3.6,5.77 -7.2,11.35 -10.72,16.67 v 0.03 c 3.5,-5.31 7.11,-10.9 10.73,-16.7" /><path
         id="path392"
         style="fill:#271a2a;fill-opacity:1;fill-rule:nonzero;stroke:none"
         d="m 1074.34,1925.23 c 13.83,37.09 -15.98,98.32 -45.81,146.14 h 0.01 c 3.82,-6.12 7.65,-12.46 11.37,-18.93 12.21,-21.25 23.47,-44.07 30.47,-65.57 7.51,-23.09 10.21,-44.67 4.08,-61.36 -0.04,-0.09 -0.08,-0.18 -0.12,-0.28" /><path
         id="path394"
         style="fill:#f7962b;fill-opacity:1;fill-rule:nonzero;stroke:none"
         d="m 1074.46,1925.51 c 6.13,16.69 3.43,38.27 -4.08,61.36 -7,21.5 -18.26,44.32 -30.47,65.57 -3.72,6.47 -7.55,12.81 -11.37,18.93 -3.62,5.8 -7.23,11.39 -10.73,16.7 v 0.07 l 36.18,38.1 c 0,0 -0.65,-62.65 10.1,-87.17 10.63,-24.24 27.61,-74.09 10.37,-113.56" /><path
         id="path396"
         style="fill:#eec681;fill-opacity:1;fill-rule:nonzero;stroke:none"
         d="m 1281.91,2116.06 c 0,0 0,0.01 -26.75,0.76 0,0 0,0 0,0.01 l 26.73,-0.76 c -0.94,2.3 -1.64,5.18 -2.15,8.48 0.96,-5.55 2.17,-8.49 2.17,-8.49" /><path
         id="path398"
         style="fill:#271a2a;fill-opacity:1;fill-rule:nonzero;stroke:none"
         d="m 1255.16,2116.82 c -8.01,0.22 -18.42,0.51 -31.95,0.89 0,0.01 0,0.01 0,0.01 l 31.95,-0.89 c 0,-0.01 0,-0.01 0,-0.01" /><path
         id="path400"
         style="fill:#ed723a;fill-opacity:1;fill-rule:nonzero;stroke:none"
         d="m 1278.6,2141.77 c 0,0.04 0,0.09 0,0.13 v 0 c 0,-0.04 0,-0.09 0,-0.13" /><path
         id="path402"
         style="fill:#f7962b;fill-opacity:1;fill-rule:nonzero;stroke:none"
         d="m 1281.89,2116.07 -26.73,0.76 -31.95,0.89 c 0,0 0,0 0,-0.01 -0.01,0 -0.02,0 -0.03,0 7.07,19.01 -17.31,58.49 -17.41,58.66 19.07,-30.59 41.34,-36.65 56.63,-36.65 7.44,0 13.23,1.44 16.2,2.18 0,-0.04 0,-0.09 0,-0.13 -0.2,-7.18 0.4,-12.97 1.14,-17.22 0.51,-3.3 1.21,-6.18 2.15,-8.48 m -76.12,60.3 v 0 0" /><path
         id="path404"
         style="fill:#282251;fill-opacity:1;fill-rule:nonzero;stroke:none"
         d="m 1156.54,1803.63 233.53,9.39 c 5.56,0.22 10.25,4.21 11.37,9.66 l 32.31,158.02 c 1.58,7.7 -4.49,14.83 -12.33,14.51 l -233.53,-9.38 c -5.56,-0.22 -10.25,-4.21 -11.37,-9.67 l -32.31,-158.02 c -1.58,-7.69 4.49,-14.83 12.33,-14.51" /><path
         id="path406"
         style="fill:#4d41a1;fill-opacity:1;fill-rule:nonzero;stroke:none"
         d="m 1155.97,1809.33 232.5,9.34 c 3.33,0.13 6.14,2.52 6.81,5.78 l 31.96,156.29 c 0.94,4.61 -2.68,8.89 -7.39,8.69 l -227.17,-9.13 c -5.21,-0.2 -9.61,-3.94 -10.65,-9.05 l -31.75,-155.23 c -0.73,-3.55 2.07,-6.84 5.69,-6.69" /><path
         id="path408"
         style="fill:#ee8d73;fill-opacity:1;fill-rule:nonzero;stroke:none"
         d="m 1137.6,1888.8 -1.7,-9.5 -4.9,0.7 -2.8,-13.8 c 0,0 -3.8,0.7 -10.9,2 l -0.1,0.1 -0.3,0.1 c -12.1,2.1 -33.5,6.4 -62.1,13.1 -18.5,4.2 -39.9,9.4 -63.999,15.6 -31.699,8.1 -52.301,24.3 -52.805,28.7 -0.894,7.1 0.402,21.1 2.805,38.1 1.199,8.7 2.699,18.2 4.398,27.8 5.801,34.9 13.602,72.4 16.5,85.8 0.199,1.4 0.496,2.6 0.703,3.4 0.196,1.2 0.297,1.8 0.297,1.8 l 9.199,-3.6 50.102,-19.3 -3.3,-9.4 -31.102,-89.4 -0.196,-1.3 c -0.3,-2.7 1.297,-5.2 3.895,-6.1 24.603,-8.9 54.103,-22.8 79.703,-35.7 21.9,-10.9 41.1,-21.2 51.8,-27 l 2.2,-1.2 c 2.6,-1.5 5.4,-1.7 7.7,-1.6 2.8,0.1 4.9,0.7 4.9,0.7" /><path
         id="path410"
         style="fill:#faded8;fill-opacity:1;fill-rule:nonzero;stroke:none"
         d="m 986,1898.39 c -1.937,0.57 -3.832,1.17 -5.676,1.79 1.848,-0.61 3.742,-1.21 5.684,-1.77 -0.004,-0.01 -0.004,-0.01 -0.008,-0.02" /><path
         id="path412"
         style="fill:#cfb2dd;fill-opacity:1;fill-rule:nonzero;stroke:none"
         d="m 1054.82,1881.46 c -18.49,4.21 -39.95,9.42 -63.992,15.6 -1.637,0.42 -3.246,0.87 -4.828,1.33 0.004,0.01 0.004,0.01 0.008,0.02 1.566,-0.46 3.168,-0.89 4.793,-1.31 24.099,-6.2 45.499,-11.4 63.999,-15.6 0.01,0 0.02,0 0.03,0 0,-0.02 -0.01,-0.03 -0.01,-0.04 v 0" /><path
         id="path414"
         style="fill:#f89e40;fill-opacity:1;fill-rule:nonzero;stroke:none"
         d="m 1069.05,1878.23 c -4.52,1 -9.27,2.08 -14.23,3.23 v 0 0 c 0,0.01 0.01,0.02 0.01,0.04 4.96,-1.17 9.7,-2.25 14.22,-3.27" /><path
         id="path416"
         style="fill:#faded8;fill-opacity:1;fill-rule:nonzero;stroke:none"
         d="m 940.137,1922.43 c -1.157,1.24 -1.856,2.28 -2.067,3.03 0.227,-0.77 0.926,-1.8 2.067,-3.03 m -1.063,28.04 c 0.469,4.19 1.047,8.69 1.711,13.42 5.535,40.26 17.219,96.55 20.899,113.66 0.238,1.39 0.476,2.59 0.695,3.38 l 0.027,-0.02 c -0.004,0 -0.004,-0.01 -0.004,-0.01 -0.207,-0.8 -0.504,-2 -0.703,-3.4 -2.898,-13.4 -10.699,-50.9 -16.5,-85.8 -1.699,-9.6 -3.199,-19.1 -4.398,-27.8 -0.668,-4.74 -1.254,-9.24 -1.727,-13.43" /><path
         id="path418"
         style="fill:#e8775e;fill-opacity:1;fill-rule:nonzero;stroke:none"
         d="m 1116.87,1868.41 c -0.03,0.01 -0.08,0.01 -0.12,0.02 0.04,-0.01 0.08,-0.01 0.12,-0.02 m -0.12,0.02 c -9.97,1.77 -26.26,5.02 -47.7,9.8 -4.52,1.02 -9.26,2.1 -14.22,3.27 -0.01,0 -0.02,0 -0.03,0 -18.5,4.2 -39.9,9.4 -63.999,15.6 -1.625,0.42 -3.227,0.85 -4.793,1.31 -1.942,0.56 -3.836,1.16 -5.684,1.77 -20.504,6.91 -34.972,16.66 -40.187,22.25 -1.141,1.23 -1.84,2.26 -2.067,3.03 -0.027,0.1 -0.047,0.2 -0.058,0.29 -0.649,5.14 -0.157,13.89 1.062,24.72 0.473,4.19 1.059,8.69 1.727,13.43 1.199,8.7 2.699,18.2 4.398,27.8 5.801,34.9 13.602,72.4 16.5,85.8 0.199,1.4 0.496,2.6 0.703,3.4 0,0 0,0.01 0.004,0.01 l 12.496,-6.44 c 0,0 -0.461,-2.18 -1.371,-6.06 -4.019,-18.39 -16.191,-74.38 -21.812,-107.03 -1.809,-10.85 -2.934,-19.12 -2.836,-22.63 0.644,-16.33 9.59,-18.38 20.664,-23.09 6.32,-2.78 49.243,-16.89 87.313,-29.06 28.72,-9.24 54.71,-17.22 59.89,-18.17" /><path
         id="path420"
         style="fill:#ee8d73;fill-opacity:1;fill-rule:nonzero;stroke:none"
         d="m 1122.79,1890.91 c 0,0 6.4,-1.39 8.56,-1.29 3.38,0.16 4.48,0.81 4.48,0.81 0,0 13.53,9.17 25.32,10.53 l -1.96,-9.59 c 0,0 15.84,-8.98 20.82,-12.18 0,0 5.2,-2.38 7.28,-2.98 2.09,-0.6 20.64,1.08 25,1.01 4.37,-0.08 6.76,-2.62 6.64,-5.37 0,0 -0.29,-1.4 -2.68,-1.84 -0.41,-0.08 -1.67,-0.24 -3.2,-0.45 2.21,0.14 4.07,0.24 4.93,0.23 4.36,-0.07 6.76,-2.62 6.64,-5.38 0,0 -0.29,-1.38 -2.68,-1.82 -0.69,-0.13 -3.96,-0.55 -8.2,-1.07 3.41,-0.55 5.34,-2.71 5.24,-5.13 0,0 -0.29,-1.39 -2.68,-1.83 -0.71,-0.14 -4.26,-0.59 -8.78,-1.13 1.32,-1.01 2.05,-2.39 1.99,-3.89 0,0 -0.3,-1.39 -2.68,-1.83 -2.4,-0.43 -34.8,-5.67 -38.11,-5.07 -6.07,1.09 -29.14,17.87 -30.37,18.76 -4.37,2.53 -10.16,4.83 -10.16,4.83 l -5.4,24.68" /><path
         id="path422"
         style="fill:#fab84b;fill-opacity:1;fill-rule:nonzero;stroke:none"
         d="m 1060.9,2130.1 c -13,-45 -18.8,-68.6 -21,-77.7 -0.7,-2.9 -1,-4.3 -1,-4.3 0,0 -8.2,0 -20.2,2.3 -12.6,2.5 -29.399,7.6 -45.2,18 -1.098,0.7 -2.199,1.5 -3.301,2.3 -2.898,2.1 -5.695,4.3 -8.5,6.8 -4.695,4.3 -9.297,9.1 -13.301,14.6 0,0 13.5,88.3 42.903,126.1 l 0.199,0.2 c 5.301,6.8 11.3,12.1 17.8,14.7 1,0.4 2,0.8 2.9,1 15.3,5 28.4,-0.4 37.9,-12.3 8.6,-10.6 14.1,-26.5 15.7,-44.7 1.2,-14.7 -0.2,-30.8 -4.9,-47" /><path
         id="path424"
         style="fill:#ee8d73;fill-opacity:1;fill-rule:nonzero;stroke:none"
         d="m 1159.02,2291.41 c -10.75,-5.69 -22.24,-7.94 -33.67,-8.18 0.06,-4.69 0.47,-9.68 1.24,-14.86 2.86,-0.7 4.39,-1.08 6.31,-1.76 4.37,-1.55 2.35,-10.15 1.84,-13.34 -2.41,-14.73 -15.99,-20.82 -29.57,-16.95 -13.5,3.83 -18.62,18.79 -23.17,30.5 -1.91,4.91 -12.11,9.59 -12.48,19.09 -0.2,2.86 -0.3,5.9 -0.39,9.13 -6.1,2.47 -9.64,4.41 -9.64,4.41 0,0 -1.32,15.34 -1.66,36.16 -0.11,5.81 -0.21,12.16 -0.03,18.61 0.38,29.83 3.45,63.91 14.07,81.12 13.31,21.46 48.03,17.9 72.09,12.16 14.56,-3.45 25.21,-7.62 25.21,-7.62 0,0 32.2,-126.35 -10.15,-148.47" /><path
         id="path426"
         style="fill:#d87160;fill-opacity:1;fill-rule:nonzero;stroke:none"
         d="m 1126.77,2424.46 c 0,0 4.18,-23.73 -14.38,-38.7 -18.56,-14.95 -50.47,-22.56 -51.16,-42 -0.41,-11.53 8.78,-22.39 8.78,-22.39 0,0 -20.84,0.76 -21.82,2.24 -0.99,1.49 -11.12,45.7 -11.12,45.7 0,0 42.3,49.1 47.61,51.73 5.31,2.61 42.09,3.42 42.09,3.42" /><path
         id="path428"
         style="fill:#282251;fill-opacity:1;fill-rule:nonzero;stroke:none"
         d="m 1144,2447.5 c -24.1,5.7 -58.8,9.3 -72.1,-12.2 -10.6,-17.2 -13.7,-51.3 -14.1,-81.1 -2.8,-4.5 -4.1,-11.1 0,-18.6 0.4,-20.8 1.7,-36.1 1.7,-36.1 0,0 3.5,-2 9.6,-4.5 0.1,-3.2 0.2,-6.2 0.4,-9.1 0.4,-9.5 0.9,-17.2 1.2,-22.5 -21.8,-7.3 -48.5,-19.5 -58.5,-29.3 -0.9,-0.2 -1.9,-0.6 -2.9,-1 -6.5,-2.6 -12.499,-7.9 -17.8,-14.7 l -0.199,-0.2 c -29.403,-37.8 -42.903,-126.1 -42.903,-126.1 4.004,-5.5 8.606,-10.3 13.301,-14.6 -2.898,-13.4 -10.699,-50.9 -16.5,-85.8 -10.398,4 -20.597,9.8 -30.504,17.7 -33.695,27.1 -41.097,81.4 -15.593,117.1 19.199,27.2 18.093,45 15.996,51.4 -25.797,80.6 9.703,138.9 51.703,164 17.101,10.3 28.199,29 28,50.1 -0.199,22.5 3.699,50.3 20.599,69.3 24.4,27.6 51.8,34.6 76.1,31.6 20.5,-2.6 44.2,-16.7 55.3,-35.5 1.9,-3.2 0.3,-6.5 -2.8,-9.9" /><path
         id="path430"
         style="fill:#282251;fill-opacity:1;fill-rule:nonzero;stroke:none"
         d="m 1088.57,2275.79 c -0.08,-3.04 -0.89,-5.59 -2.15,-7.86 -4.63,-1.06 -10.02,-2.67 -15.69,-4.53 -0.31,5.26 -0.84,13.01 -1.21,22.51 -0.2,2.86 -0.3,5.9 -0.39,9.13 -6.1,2.47 -9.64,4.41 -9.64,4.41 0,0 -1.32,15.34 -1.66,36.16 1.49,-2.9 3.88,-6.01 7.3,-9.15 0,0 24.62,-21.87 23.44,-50.67" /><path
         id="path432"
         style="fill:#282251;fill-opacity:1;fill-rule:nonzero;stroke:none"
         d="m 1143.96,2447.5 c -7.5,-8.17 -23.88,-17.38 -23.47,-28.91 1.05,-31.53 -31.59,-45.9 -57.11,-59 -1.95,-0.97 -4.03,-2.84 -5.58,-5.37 0.38,29.83 3.45,63.91 14.07,81.12 13.31,21.46 48.03,17.9 72.09,12.16" /><path
         id="path434"
         style="fill:#282251;fill-opacity:1;fill-rule:nonzero;stroke:none"
         d="m 1193.35,2479.47 c 17.5,-13.48 18.4,-41.33 1.38,-55.21 -17.04,-13.9 -45.53,-23.16 -90.42,-1.85 -53.55,25.43 -40.12,70.5 -5.35,69.08 67.1,-20.31 73.65,3.97 94.39,-12.02" /><path
         id="path436"
         style="fill:#282251;fill-opacity:1;fill-rule:nonzero;stroke:none"
         d="m 1086.17,2293.3 c 0,0 25.83,-73.09 -90.424,-58.35 -97.387,12.35 -80.836,-123.91 -80.836,-123.91 l 36.723,82.08 44.945,60 24.472,26.67 65.12,13.51" /></g></g></svg>