<?xml version="1.0" encoding="UTF-8" standalone="no"?>
<svg
   xmlns:dc="http://purl.org/dc/elements/1.1/"
   xmlns:cc="http://creativecommons.org/ns#"
   xmlns:rdf="http://www.w3.org/1999/02/22-rdf-syntax-ns#"
   xmlns:svg="http://www.w3.org/2000/svg"
   xmlns="http://www.w3.org/2000/svg"
   viewBox="0 0 1466.6667 1066.6667"
   height="1066.6667"
   width="1466.6667"
   xml:space="preserve"
   id="svg2"
   version="1.1"><metadata
     id="metadata8"><rdf:RDF><cc:Work
         rdf:about=""><dc:format>image/svg+xml</dc:format><dc:type
           rdf:resource="http://purl.org/dc/dcmitype/StillImage" /></cc:Work></rdf:RDF></metadata><defs
     id="defs6" /><g
     transform="matrix(1.3333333,0,0,-1.3333333,0,1066.6667)"
     id="g10"><g
       transform="scale(0.1)"
       id="g12"><path
         id="path14"
         style="fill:#ffffff;fill-opacity:1;fill-rule:nonzero;stroke:none"
         d="M 0,0 H 11000 V 8000 H 0 Z" /><path
         id="path16"
         style="fill:#f6eaea;fill-opacity:1;fill-rule:nonzero;stroke:none"
         d="m 9178.45,260.969 c -61.63,0 -123.58,2.32 -186.24,7.992 -239.37,21.629 -482,32.441 -720.18,63.309 -546.62,70.89 -1093.49,75.07 -1644.09,75.07 -218.62,0 -437.21,1.98 -655.78,1.98 -318.25,0 -636.39,-4.191 -954.01,-24.781 -495.58,-32.117 -992,-37.238 -1488.48,-37.238 -74.79,0 -149.59,0.121 -224.38,0.281 -4.86,0.008 -9.72,0.008 -14.59,0.008 -274.8,0 -548.53,-16.399 -822.91,-27.981 -275.66,-11.64 -543.71,-30.75 -817.78,-30.75 -24.71,0 -49.51,0.161 -74.33,0.493 -273.84,3.648 -690.805,80.91 -886.168,277.847 -115.985,117.012 -100.266,398.512 15.898,511.331 50.75,49.28 132.559,87.89 199.387,111.36 190.353,66.91 384.093,67.06 583.003,68.46 2.42,0.02 4.84,0.03 7.26,0.03 137.28,0 280.01,-26.8 411.59,-64.03 119.69,-33.87 241.97,-45.75 363.7,-66.83 99.6,-17.26 206.17,-25.52 311.56,-25.52 68.6,0 136.7,3.51 202.04,10.31 176.74,18.38 354.74,26.93 532.01,41.42 220.11,18 435.53,57.02 654.88,77.94 109.8,10.47 217.07,36.43 326.63,48.23 290.58,31.3 581.67,38.08 872.76,38.92 23.57,0.07 47.13,0.1 70.7,0.1 138.61,0 277.23,-1.01 415.77,-1.01 112.62,0 225.16,0.33 337.72,0.33 385.33,0 770.34,-3.83 1154.63,-37.67 119.08,-10.49 237.38,-4.14 354.8,-29.1 117.88,-25.06 236.88,-47.91 357.66,-52.38 103.4,-3.82 207.09,-5.08 310.92,-5.08 184.5,0 369.35,3.98 553.23,4.62 18.43,0.07 44.06,0.18 75.87,0.18 411.73,0 1846.07,-18.32 1743.17,-389.021 C 10505.2,667.34 10275.3,481.941 10146.4,422.27 9983.53,346.891 9805.4,302.281 9626.11,287.25 9475,274.57 9327.66,260.969 9178.45,260.969" /><path
         id="path18"
         style="fill:#d67086;fill-opacity:1;fill-rule:nonzero;stroke:none"
         d="M 3152.77,5082.81 H 1894.46 V 6341.12 H 3152.77 V 5082.81" /><path
         id="path20"
         style="fill:#e8a6b7;fill-opacity:1;fill-rule:nonzero;stroke:none"
         d="m 1894.46,6341.12 353.69,397.62 H 3506.46 L 3152.77,6341.12 H 1894.46" /><path
         id="path22"
         style="fill:#c6607b;fill-opacity:1;fill-rule:nonzero;stroke:none"
         d="M 3152.77,6341.12 V 5082.81 l 353.69,397.62 v 1258.31 l -353.69,-397.62" /><path
         id="path24"
         style="fill:#a0a1a3;fill-opacity:1;fill-rule:nonzero;stroke:none"
         d="m 3440.52,5882.37 h -101.13 v 33.7 h 101.13 z m 168.54,0 h -101.12 v 33.7 h 101.12 z m 168.55,0 h -101.13 v 33.7 h 101.13 z m 168.54,0 h -101.12 v 33.7 h 101.12 z m 168.55,0 h -101.14 v 33.7 h 101.14 z m 168.54,0 h -101.12 v 33.7 h 101.12 z m 165.88,0 h -98.46 v 33.7 h 98.46 v -33.7" /><path
         id="path26"
         style="fill:#5d66d3;fill-opacity:1;fill-rule:nonzero;stroke:none"
         d="m 6121.57,4913 h -1735.1 v 1735.09 h 1735.1 V 4913" /><path
         id="path28"
         style="fill:#7a86dd;fill-opacity:1;fill-rule:nonzero;stroke:none"
         d="m 4386.47,6648.09 487.71,548.28 h 1735.1 l -487.71,-548.28 h -1735.1" /><path
         id="path30"
         style="fill:#474ebb;fill-opacity:1;fill-rule:nonzero;stroke:none"
         d="M 6121.57,6648.09 V 4913 l 487.71,548.27 v 1735.1 l -487.71,-548.28" /><path
         id="path32"
         style="fill:#ffffff;fill-opacity:1;fill-rule:nonzero;stroke:none"
         d="m 5288.08,5540.96 v -137.69 c 0,-10.23 -11.92,-18.52 -26.62,-18.52 h -0.54 c -14.7,0 -26.61,8.29 -26.61,18.52 v 137.69 c -45.52,11.9 -79.11,53.3 -79.11,102.55 0,58.53 47.45,105.99 105.99,105.99 58.54,0 106,-47.46 106,-105.99 0,-49.25 -33.6,-90.65 -79.11,-102.55 z m -261.18,624.67 c 0,20.59 2.27,34.66 9,55.75 5.21,16.36 17.99,39.86 29.08,53.48 14.79,18.18 28.58,29.99 49.23,42.15 18.82,11.08 37.49,17.59 62.45,21.77 1.06,0.18 4.43,0.64 12.91,1.2 3.55,0.23 7.36,0.34 12.03,0.34 h 138.91 c 21,0 35.21,-2.27 56.31,-8.99 16.36,-5.22 39.86,-18 53.48,-29.08 18.17,-14.8 29.98,-28.6 42.14,-49.24 11.09,-18.81 17.59,-37.49 21.77,-62.45 0.18,-1.06 0.65,-4.43 1.2,-12.91 0.23,-3.55 0.34,-7.33 0.34,-11.89 V 5907.39 H 5026.9 Z m 567.7,-258.24 v 258.24 c 0,54.17 -17.31,106.14 -50.09,150.26 -32.51,43.78 -77.03,75.63 -128.74,92.12 -34.99,11.15 -70.25,11.15 -104.35,11.15 h -99.23 c -46.13,0 -86.67,-8.73 -123.97,-26.7 -47.55,-22.92 -88.88,-64.22 -113.4,-113.33 -17.76,-35.59 -26.76,-74.66 -26.76,-116.09 v -255.65 h -90.12 v -571.83 c 0,-77.35 62.7,-140.04 140.05,-140.04 h 526.4 c 77.35,0 140.04,62.69 140.04,140.04 v 571.83 h -69.83" /><path
         id="path34"
         style="fill:#a0a1a3;fill-opacity:1;fill-rule:nonzero;stroke:none"
         d="m 6466.55,5989.42 h -101.13 v 33.7 h 101.13 z m 168.55,0 h -101.13 v 33.7 h 101.13 z m 168.54,0 h -101.13 v 33.7 h 101.13 z m 168.55,0 h -101.13 v 33.7 h 101.13 z m 168.54,0 H 7039.6 v 33.7 h 101.13 z m 168.55,0 h -101.13 v 33.7 h 101.13 z m 165.88,0 h -98.47 v 33.7 h 98.47 v -33.7" /><path
         id="path36"
         style="fill:#d67086;fill-opacity:1;fill-rule:nonzero;stroke:none"
         d="M 8543.81,5287.91 H 7452.06 V 6379.66 H 8543.81 V 5287.91" /><path
         id="path38"
         style="fill:#e8a6b7;fill-opacity:1;fill-rule:nonzero;stroke:none"
         d="m 7452.06,6379.66 306.88,344.98 H 8850.68 L 8543.81,6379.66 H 7452.06" /><path
         id="path40"
         style="fill:#c6607b;fill-opacity:1;fill-rule:nonzero;stroke:none"
         d="M 8543.81,6379.66 V 5287.91 l 306.87,344.98 v 1091.75 l -306.87,-344.98" /><path
         id="path42"
         style="fill:#3b3387;fill-opacity:1;fill-rule:nonzero;stroke:none"
         d="m 5215.04,3989.91 -146.5,-50.24 -237.01,-355.25 -303.51,203.08 -96.46,-114.48 153.08,-227.15 275.62,-196.82 354.78,371.3 v 369.56" /><path
         id="path44"
         style="fill:#eac1a4;fill-opacity:1;fill-rule:nonzero;stroke:none"
         d="m 5892.11,4777.68 11.2,159.38 -128.91,99.8 -54.05,-70.7 58.21,-103.95 -20.79,-54.06 57.15,-85.84 77.19,55.37" /><path
         id="path46"
         style="fill:#292949;fill-opacity:1;fill-rule:nonzero;stroke:none"
         d="m 4870.68,2967.7 -10.42,-901.74 96.1,-1160.808 h 130.66 l 156.35,1070.948 178.8,1072.8 -551.49,-81.2" /><path
         id="path48"
         style="fill:#1f1f35;fill-opacity:1;fill-rule:nonzero;stroke:none"
         d="m 5086.27,850.051 -141.3,-70.653 -70.64,70.653 70.64,70.64 h 141.3 v -70.64" /><path
         id="path50"
         style="fill:#292949;fill-opacity:1;fill-rule:nonzero;stroke:none"
         d="m 5766.52,2967.7 2.57,-521.68 -88.12,-1540.868 H 5550.3 l -218.57,1022.508 -116.69,1121.24 551.48,-81.2" /><path
         id="path52"
         style="fill:#1f1f35;fill-opacity:1;fill-rule:nonzero;stroke:none"
         d="m 5551.05,850.051 141.3,-70.653 70.65,70.653 -70.65,70.64 h -141.3 v -70.64" /><path
         id="path54"
         style="fill:#3b3387;fill-opacity:1;fill-rule:nonzero;stroke:none"
         d="m 5902.4,2653.57 c 2.81,-82.76 1.01,-193.48 -33.85,-197.61 -6.52,-0.78 -12.81,2.11 -18.55,4.9 -60.6,29.43 -103.8,71.05 -163.54,99.5 -62.6,29.81 -133.75,45.4 -203.3,56.17 -103.72,16.57 -209.15,26.52 -313.53,27.44 -89.72,0.8 -183.01,-40.12 -267.82,-62.63 -32.65,-8.66 -59.2,-32.45 -86.33,-51.12 -40.06,-27.55 -57.62,-38.47 -52.16,17.84 8.92,91.88 18.17,183.75 29.47,275.37 22.55,182.75 53.25,365.07 105.17,541.98 19.84,67.59 42.72,134.23 65.6,200.85 27.86,81.12 55.72,162.25 83.58,243.37 34.62,100.83 93.06,171.85 195.37,207.12 88.43,30.48 198.26,38.82 284.27,-3.85 95.6,-47.42 141.07,-209 187.52,-295.35 40.7,-75.67 92.01,-282.04 107.24,-363.61 18.34,-98.19 35.28,-195.91 48.62,-293.37 14.77,-107.94 25.18,-215.57 28.19,-322.57 0.33,-11.83 2.72,-44.9 4.05,-84.43" /><path
         id="path56"
         style="fill:#eac1a4;fill-opacity:1;fill-rule:nonzero;stroke:none"
         d="m 5323.05,3995.21 c 2.07,-1.8 4.46,-3.22 7.21,-4.13 5.49,-1.8 11.45,-1.15 17.18,-0.46 23.36,2.76 46.72,5.52 70.07,8.29 -7.71,71.52 34.11,87.7 74.85,133.7 41.3,46.64 28.59,109.52 26.27,166.59 -0.66,15.9 -1.43,32.27 -8.16,46.69 -11.79,25.3 -39.25,39.28 -65.91,47.57 -68.03,21.13 -145.84,15.92 -205.74,-22.64 -15.94,-10.25 -30.83,-23.15 -39.46,-40.03 -13.32,-26.02 -9.94,-57.08 -6.23,-86.08 5.71,-44.57 18.9,-88.34 44.11,-125.9 23.47,-35 68.24,-51.76 73.39,-93.76 1.32,-10.85 4.6,-23.06 12.42,-29.84" /><path
         id="path58"
         style="fill:#292949;fill-opacity:1;fill-rule:nonzero;stroke:none"
         d="m 5195.11,4296.51 c 3.96,-17.97 12.34,-36.16 7.99,-54.03 -28.56,9.69 -47.21,38.89 -57.33,68.57 -4.58,13.45 -7.91,27.7 -6.76,41.94 1.16,14.24 7.34,28.54 18.58,36.59 15.68,11.22 43.82,6.82 48.31,-13.54 4.52,-20.5 -16.77,-52.49 -10.79,-79.53" /><path
         id="path60"
         style="fill:#292949;fill-opacity:1;fill-rule:nonzero;stroke:none"
         d="m 5043.54,4454.4 c 0.67,21.54 8.87,40.79 28.12,53.78 16.59,11.2 35.71,20.5 45.79,38.31 7.82,13.83 8.98,30.94 16.73,44.81 14.03,25.12 44.51,32.51 71.02,41.01 66.29,21.3 102,45.88 172.22,18.63 49.93,-19.39 114.45,-21.98 160.79,-50.26 19.36,-11.8 35.82,-30.77 49.34,-51.89 46.82,-73.2 58.06,-176.12 27.56,-252.47 -6.83,-17.09 -15.5,-32.8 -24.77,-47.85 -18.54,-30.09 -38.4,-67.11 -71.22,-81.84 -2.06,14.18 -12.62,22 -15.93,35.94 -2.37,10.02 -1.58,20.54 -1.06,30.85 2.02,40.14 14.33,103.61 -25.75,123.52 -50.7,25.17 -145.78,2.46 -194.61,-18.84 -43.2,-18.86 -116.11,-43.38 -162.16,-23.19 -42.76,18.75 -77.53,93.48 -76.07,139.49" /><path
         id="path62"
         style="fill:#3b3387;fill-opacity:1;fill-rule:nonzero;stroke:none"
         d="m 5486.76,4022.07 448.25,132.1 -165.92,560.41 136.72,98.07 330.04,-648.75 -91.27,-224.66 -428.28,-221.06 -229.54,303.89" /><path
         id="path64"
         style="fill:#f7f7f7;fill-opacity:1;fill-rule:nonzero;stroke:none"
         d="m 8344.8,4089.76 -130.82,-5.5 -390.08,-370.13 -579.38,77.55 -38.49,-141.86 569.39,-203.95 h 171.92 l 304.85,187.15 92.61,456.74" /><path
         id="path66"
         style="fill:#eac1a4;fill-opacity:1;fill-rule:nonzero;stroke:none"
         d="m 7245.67,3703.75 -76.83,-58.18 -61.82,-4.45 -4.23,20.6 32.88,20.77 -119.57,3.52 -20.88,53.48 131.62,58.38 131.58,-13.08 -12.75,-81.04" /><path
         id="path68"
         style="fill:#1f1f35;fill-opacity:1;fill-rule:nonzero;stroke:none"
         d="m 8074.14,1062.74 -108.66,-76.97 -36.22,-58.86 c 0,0 40.74,-18.101 63.39,-22.629 22.63,-4.531 199.21,22.629 199.21,22.629 v 104.14 l -117.72,31.69" /><path
         id="path70"
         style="fill:#1f1f35;fill-opacity:1;fill-rule:nonzero;stroke:none"
         d="m 8918.49,1029.96 -40.11,-72.94 c 0,0 -25.09,-92.161 -3.35,-85.84 21.74,6.32 142.92,27.371 147.82,42.941 4.91,15.578 57.5,78 63.67,89.219 6.17,11.22 -20.01,86.3 -20.01,86.3 l -148.02,-59.68" /><path
         id="path72"
         style="fill:#353a85;fill-opacity:1;fill-rule:nonzero;stroke:none"
         d="m 8175.28,2746.63 350.86,-1047.41 392.35,-669.26 152.16,44.21 -260.11,763.3 c 0,0 -31.41,766.78 -82.79,992.31 l -552.47,-83.15" /><path
         id="path74"
         style="fill:#353a85;fill-opacity:1;fill-rule:nonzero;stroke:none"
         d="m 7897.56,2588.55 135.83,-1557.5 h 163 l 49.8,796.87 93.57,705.5 -356.18,417.35 -86.02,-362.22" /><path
         id="path76"
         style="fill:#f7f7f7;fill-opacity:1;fill-rule:nonzero;stroke:none"
         d="m 7892.33,3585.18 c 16.88,80.27 23.52,166.68 63.29,241.52 39.75,74.84 114.85,131.54 172.83,195.18 24.56,26.97 50.77,55.02 87.29,67.88 25.02,8.8 52.63,9.6 79.58,10.28 81.76,2.06 163.53,4.12 245.29,6.18 29.8,0.75 60.81,1.3 87.97,-9.46 40.73,-16.14 63.74,-53.65 83.86,-88.64 51.4,-89.37 60.87,-188.49 65.47,-289.5 -0.16,-0.94 63.78,-1268.62 13.07,-1244.82 -63.16,29.64 -135.4,45.39 -206.26,56.41 -99.92,16.01 -201.91,26.19 -303.73,28.7 l -179.25,-12.09 h -108.17 c -64.92,-6.3 -59.59,-25.82 -126.3,-21.76 -42.69,2.59 5.73,968.1 25.06,1060.12" /><path
         id="path78"
         style="fill:#eac1a4;fill-opacity:1;fill-rule:nonzero;stroke:none"
         d="m 8361.99,4059.03 c 40.58,1.77 81.15,3.53 121.73,5.3 2.19,32.31 1.79,64.8 -1.19,97.06 34.29,9.96 74.14,25.53 81.95,60.38 2.46,10.97 1.17,22.4 -0.12,33.57 -5.38,46.19 -10.74,92.37 -16.11,138.56 -1.85,15.97 -3.86,32.43 -11.71,46.46 -13.78,24.62 -42.51,36.65 -70,43.02 -70.15,16.22 -148.2,5.16 -205.71,-38.19 -15.3,-11.54 -29.35,-25.65 -36.79,-43.32 -11.47,-27.22 -5.74,-58.28 0.17,-87.23 5.46,-26.72 10.91,-53.45 16.37,-80.17 6.27,-30.74 15.85,-65.82 44.4,-78.8 15.17,-6.89 33.56,-6.14 47.1,-15.85 23.88,-17.11 18.5,-53.72 29.91,-80.79" /><path
         id="path80"
         style="fill:#292949;fill-opacity:1;fill-rule:nonzero;stroke:none"
         d="m 8137.18,4646 c 9,1.61 18.19,3.51 27.51,7.56 29.39,12.8 49.99,38.45 81.2,50.46 63.13,24.29 142.32,20.77 204.34,-5.32 59.35,-24.96 140.36,-34.57 193.47,-68.11 22.18,-14.01 39.34,-34.93 52.35,-57.7 45.1,-78.91 39.55,-183.95 -13.62,-257.67 -11.92,-16.54 -25.93,-31.48 -40.56,-45.68 -30.29,-29.39 -66.58,-65.77 -106.51,-75.07 1.02,35.21 39.18,144.28 13.79,174.59 -33.68,40.19 -99.78,39.16 -147.16,34.72 -56.44,-5.28 -102.91,12.84 -159.2,10.03 -28.67,-1.44 -61.09,-7.21 -83.07,11.26 -25.42,21.34 -79.15,89.13 -91.9,118.88 -11.15,26.04 -3.71,58.12 15.69,78.78 16.73,17.84 34.8,19.91 53.67,23.27" /><path
         id="path82"
         style="fill:#d67086;fill-opacity:1;fill-rule:nonzero;stroke:none"
         d="m 8372.96,4060.04 c -4.24,-29.71 -13.35,-63.42 -13.35,-63.42 0,0 -226.08,-651.27 -247.58,-703.27 -4.79,-11.62 -7.18,-24.05 -7.18,-36.63 l 51.91,-152.43 103.02,127.39 139.76,729.77 33.95,29.13 11.91,73.99 -72.44,-4.53" /><path
         id="path84"
         style="fill:#f7f7f7;fill-opacity:1;fill-rule:nonzero;stroke:none"
         d="m 8484.81,3745.85 -59.44,-361.46 -648.62,-168.27 v -173.04 l 775.97,82.01 134.1,216.59 -12.91,560.61 -189.1,-156.44" /><path
         id="path86"
         style="fill:#eac1a4;fill-opacity:1;fill-rule:nonzero;stroke:none"
         d="m 7776.75,3076.6 -74.34,-33.52 -151.9,34.54 25.87,82.19 117.97,7.02 23.72,39.9 57.56,-15.37 1.12,-114.76" /><path
         id="path88"
         style="fill:#eac1a4;fill-opacity:1;fill-rule:nonzero;stroke:none"
         d="m 4483.69,3782.52 -149.59,-56.1 -37.13,-158.74 86.77,-19.76 70.32,96.18 57.81,3.59 54.28,87.67 -82.46,47.16" /><path
         id="path90"
         style="fill:#1f1f35;fill-opacity:1;fill-rule:nonzero;stroke:none"
         d="m 2476.89,839.871 -6.17,-64.199 -129.96,-55.672 -55.73,68.461 68.07,59.93 129.97,55.679 -6.18,-64.199" /><path
         id="path92"
         style="fill:#474ebb;fill-opacity:1;fill-rule:nonzero;stroke:none"
         d="M 2585.43,2141 2485.36,860.121 2360.14,843.102 2256.48,1934.8 2170.78,2281.16 2585.43,2141" /><path
         id="path94"
         style="fill:#474ebb;fill-opacity:1;fill-rule:nonzero;stroke:none"
         d="m 2884.91,2477.13 75.08,-1522.048 -114.24,-21.504 -238.01,1151.692 -130.93,333.47 408.1,58.39" /><path
         id="path96"
         style="fill:#1f1f35;fill-opacity:1;fill-rule:nonzero;stroke:none"
         d="m 2855.92,883.199 135.71,-41.5 49.59,76.383 -73.95,53.129 -123.54,-23.25 12.19,-64.762" /><path
         id="path98"
         style="fill:#dddae8;fill-opacity:1;fill-rule:nonzero;stroke:none"
         d="m 2723.4,4121.02 c -92.5,76.57 -315.51,32.54 -432.83,32.54 11.29,0 -111.2,-654.95 -115.08,-712.07 -14.13,-208.26 -78.66,-418.91 -167.72,-609.59 -37.55,-80.39 -82.29,-157.94 -108.99,-242.55 -44.24,-140.22 -44.12,-305.41 -31.61,-450.54 125.92,-34.61 243.87,-99.43 373.37,-116.22 106.53,-13.82 214.14,5.78 321.15,15.24 126.54,11.2 253.98,8.21 380.65,17.96 126.67,9.74 254.72,33.02 366.84,92.75 -50.15,97.04 -88.75,199.56 -120.88,303.81 -31.9,103.54 -72.95,218.51 -84.6,326.47 -10.52,97.53 -12.24,196.77 -26.43,295.65 -16.51,115.03 -36.34,229.68 -63.89,342.63 -31.51,129.16 -73.09,255.85 -124.13,378.6 -38.87,93.46 -85.24,246.52 -158.25,318.45 -2.43,2.39 -4.96,4.68 -7.6,6.87" /><path
         id="path100"
         style="fill:#292949;fill-opacity:1;fill-rule:nonzero;stroke:none"
         d="m 2526.89,4475.07 c 58.6,-10.67 130.84,-60.73 144.97,-122.55 6.8,-29.77 -2.9,-57.18 5.65,-88.75 16.61,-62.31 -58.78,-154.1 15.85,-197.41 38.36,-22.26 86.3,-15.05 129.94,-7.16 5.29,0.96 10.82,2.02 15.01,5.39 6.9,5.56 8.05,15.95 5.44,24.4 -2.62,8.47 -8.22,15.61 -13.12,22.98 -51.28,77.12 -38.86,187.73 -58.79,275.54 -19.91,87.65 -67.01,174.95 -153.83,210.92 -43.29,-28.04 -74.77,-73.73 -85.55,-124.17 l -5.57,0.81" /><path
         id="path102"
         style="fill:#eac1a4;fill-opacity:1;fill-rule:nonzero;stroke:none"
         d="m 2600.42,4097.73 c 56.38,24.12 93.73,81.52 106.01,141.59 12.27,60.07 2.54,122.62 -14.06,181.65 -55.24,196.42 -301.75,140.16 -359.24,-27.82 -50.1,-146.38 103.36,-365.52 267.29,-295.42" /><path
         id="path104"
         style="fill:#292949;fill-opacity:1;fill-rule:nonzero;stroke:none"
         d="m 2313.41,3989.68 c 27.66,17.2 54.8,35.21 70.84,67.34 25.92,51.94 14.99,132.63 18.07,188.97 3.25,59.39 8.66,124.1 49.37,167.45 26.6,28.31 59.31,36.08 96.25,39.85 25.3,2.58 27.1,-6.92 47.35,8.51 15.53,11.81 26.9,44.14 29.13,62.65 3.77,31.24 -11.31,62.55 -33.64,84.74 -34.34,34.13 -72.89,49.24 -120.01,46.26 -165.38,-10.44 -280.94,-118.89 -313.71,-284.13 -15.75,-79.44 8.17,-164.33 -9.33,-240.97 -10.8,-47.31 -37.68,-80.52 -45.46,-130.58 -20.18,-129.93 -76.6,-298.69 -60.01,-429.83 0.61,-4.85 1.65,-10.2 5.57,-13.12 7.99,-5.95 18.43,3.01 24.26,11.09 34.04,47.16 68.1,94.31 102.14,141.46 13.37,18.51 26.9,37.35 34.65,58.82 19.28,53.5 1.36,119.03 34.64,165.13 18.16,25.16 44.25,40.41 69.89,56.36" /><path
         id="path106"
         style="fill:#eac1a4;fill-opacity:1;fill-rule:nonzero;stroke:none"
         d="m 2053.24,2730.94 c -4.73,-33.06 21.68,-117.56 52.66,-135.93 71.49,-42.41 45.58,64.19 44.91,103.06 13.66,-3.89 26.76,-8.06 40.64,-9.2 12.72,-1.05 -24.96,112.94 -37.5,123.55 -30.11,25.47 -51.52,12.39 -88.09,8.46 -3.49,-29.98 -8.29,-59.98 -12.62,-89.94" /><path
         id="path108"
         style="fill:#dddae8;fill-opacity:1;fill-rule:nonzero;stroke:none"
         d="m 2143.25,3933.48 -374.37,-653.68 266.27,-570.98 90.28,119.35 -95.09,511.06 353.68,216.11 -38.72,419.74 -202.05,-41.6" /><path
         id="path110"
         style="fill:#dddae8;fill-opacity:1;fill-rule:nonzero;stroke:none"
         d="m 2773.85,4059.03 332.09,-530.63 182.13,253.01 172.06,-28.96 -81.59,-410.5 -225.89,-167.66 -378.8,227.15 v 657.59" /><path
         id="path112"
         style="fill:#444ead;fill-opacity:1;fill-rule:nonzero;stroke:none"
         d="m 4551.62,2891.97 -1172.68,99.9 c -44.37,3.78 -77.27,42.81 -73.49,87.17 l 11.88,139.48 c 3.78,44.36 42.81,77.25 87.17,73.47 l 1172.69,-99.89 c 44.36,-3.78 77.26,-42.81 73.48,-87.17 l -11.88,-139.47 c -3.78,-44.37 -42.8,-77.27 -87.17,-73.49" /><path
         id="path114"
         style="fill:#5d66d3;fill-opacity:1;fill-rule:nonzero;stroke:none"
         d="m 3535.96,3303 -45.94,-391.36 c -10.94,-93.22 -98.96,-162.74 -192.18,-151.81 l -797.05,93.57 c -93.22,10.94 -162.74,98.95 -151.81,192.18 l 45.95,391.35 c 10.94,93.24 98.95,162.75 192.18,151.81 l 797.04,-93.55 c 93.23,-10.95 162.75,-98.96 151.81,-192.19 z m -122.43,442.41 -797.06,93.56 c -232.21,27.26 -444.52,-140.44 -471.77,-372.66 l -45.94,-391.36 c -27.26,-232.22 140.44,-444.53 372.67,-471.79 l 797.04,-93.55 c 232.22,-27.26 444.52,140.44 471.78,372.67 l 45.94,391.35 c 27.26,232.22 -140.44,444.52 -372.66,471.78" /><path
         id="path116"
         style="fill:#5d66d3;fill-opacity:1;fill-rule:nonzero;stroke:none"
         d="m 5576.83,2846.05 c 0,-93.86 -79.31,-173.16 -173.18,-173.16 h -802.52 c -93.87,0 -173.17,79.3 -173.17,173.16 v 394.05 c 0,93.87 79.3,173.17 173.17,173.17 h 802.52 c 93.87,0 173.18,-79.3 173.18,-173.17 z m -173.18,819.17 h -802.52 c -233.82,0 -425.12,-191.3 -425.12,-425.12 v -394.05 c 0,-233.8 191.3,-425.11 425.12,-425.11 h 802.52 c 233.81,0 425.12,191.31 425.12,425.11 v 394.05 c 0,233.82 -191.31,425.12 -425.12,425.12" /><path
         id="path118"
         style="fill:#5d66d3;fill-opacity:1;fill-rule:nonzero;stroke:none"
         d="m 7549.35,2779.19 -801.11,-47.65 c -93.7,-5.57 -177.57,68.89 -183.14,162.59 l -23.4,393.35 c -5.57,93.7 68.89,177.57 162.59,183.14 l 801.1,47.65 c 93.71,5.57 177.58,-68.89 183.15,-162.59 l 23.39,-393.35 c 5.58,-93.7 -68.88,-177.57 -162.58,-183.14 z m 414.09,198.1 -23.39,393.34 c -13.89,233.41 -216.21,413.02 -449.61,399.15 l -801.1,-47.65 c -233.41,-13.88 -413.02,-216.2 -399.14,-449.61 l 23.39,-393.35 c 13.88,-233.4 216.2,-413.02 449.61,-399.13 l 801.11,47.64 c 233.4,13.88 413.01,216.21 399.13,449.61" /><path
         id="path120"
         style="fill:#545fc6;fill-opacity:1;fill-rule:nonzero;stroke:none"
         d="M 6605.06,2941.38 H 5428.12 c -44.53,0 -80.62,36.09 -80.62,80.61 v 139.98 c 0,44.52 36.09,80.62 80.62,80.62 h 1176.94 c 44.52,0 80.61,-36.1 80.61,-80.62 v -139.98 c 0,-44.52 -36.09,-80.61 -80.61,-80.61" /><path
         id="path122"
         style="fill:#eac1a4;fill-opacity:1;fill-rule:nonzero;stroke:none"
         d="m 4483.69,3782.52 -149.59,-56.1 -37.13,-158.74 86.77,-19.76 70.32,96.18 57.81,3.59 54.28,87.67 -82.46,47.16" /><path
         id="path124"
         style="fill:#eac1a4;fill-opacity:1;fill-rule:nonzero;stroke:none"
         d="m 3288.07,3781.41 138.88,12.31 89.14,-110.89 -60.82,-48.3 -91.64,49.14 -46.83,-19 -75.81,48.49 47.08,68.25" /></g></g></svg>